<?xml version="1.0" encoding="UTF-8" standalone="no"?>
<!-- Created with Inkscape (http://www.inkscape.org/) -->

<svg
   width="140mm"
   height="140mm"
   viewBox="0 0 140 140"
   version="1.1"
   id="svg5"
   xml:space="preserve"
   inkscape:version="1.2.2 (b0a8486541, 2022-12-01)"
   sodipodi:docname="Bank of Nucilandia.svg"
   xmlns:inkscape="http://www.inkscape.org/namespaces/inkscape"
   xmlns:sodipodi="http://sodipodi.sourceforge.net/DTD/sodipodi-0.dtd"
   xmlns="http://www.w3.org/2000/svg"
   xmlns:svg="http://www.w3.org/2000/svg"><sodipodi:namedview
     id="namedview7"
     pagecolor="#ffffff"
     bordercolor="#666666"
     borderopacity="1.0"
     inkscape:showpageshadow="2"
     inkscape:pageopacity="0.0"
     inkscape:pagecheckerboard="0"
     inkscape:deskcolor="#d1d1d1"
     inkscape:document-units="mm"
     showgrid="false"
     inkscape:zoom="1.128065"
     inkscape:cx="172.41915"
     inkscape:cy="298.29842"
     inkscape:window-width="1920"
     inkscape:window-height="1011"
     inkscape:window-x="0"
     inkscape:window-y="32"
     inkscape:window-maximized="1"
     inkscape:current-layer="layer1" /><defs
     id="defs2"><rect
       x="290.68362"
       y="545.65118"
       width="58.055161"
       height="64.331406"
       id="rect609" /><rect
       x="290.68362"
       y="545.65118"
       width="58.055161"
       height="64.331406"
       id="rect609-7" /></defs><g
     inkscape:label="Layer 1"
     inkscape:groupmode="layer"
     id="layer1"><g
       id="g861"
       transform="translate(-34.999999,-78.500002)"><g
         id="g813"><path
           style="fill:#c87137;stroke-width:0.264583"
           d="m 101.19241,212.09067 c -11.623969,-2.41226 -17.301459,-4.10062 -21.828132,-6.49117 -1.57216,-0.83027 -5.86372,-3.49432 -6.61458,-4.1061 -2.5839,-2.10531 -5.93928,-5.05134 -6.45735,-5.66959 -0.35009,-0.41778 -1.12399,-1.30394 -1.71979,-1.96925 -1.16833,-1.30463 -1.30947,-1.4807 -2.99133,-3.73164 -2.69173,-3.6025 -5.66343,-9.47719 -7.23923,-14.31105 -3.87414,-11.88414 -3.36256,-25.39258 1.50815,-39.82316 1.52533,-4.51914 3.70058,-9.37628 5.75641,-12.85358 0.6717,-1.13612 1.22126,-2.10827 1.22126,-2.16033 0,-0.27632 4.73228,-7.07886 6.13325,-8.8164 4.72535,-5.86058 11.45465,-12.252413 19.124073,-18.165013 2.07994,-1.6035 6.628874,-5.24782 6.757274,-5.41351 0.0728,-0.0939 0.60746,-0.52161 1.18823,-0.95048 0.58076,-0.42887 1.76471,-1.34474 2.631,-2.03526 1.766125,-1.40781 1.991095,-1.3409 1.997325,0.59404 0.009,2.78226 -1.749385,8.75496 -3.419105,11.61392 -1.26272,2.16208 -3.57638,4.382983 -7.077544,6.793803 -9.370433,6.45225 -17.978203,14.71097 -22.938713,22.00852 -2.240052,3.1011 -4.210383,6.67591 -5.67869,10.38376 -3.16034,8.41673 -4.31467,13.58809 -4.81334,21.56354 -0.42081,6.73028 0.43459,13.10104 2.52094,18.77511 0.64336,1.74969 3.81486,8.03174 4.3894,8.69444 0.14862,0.17143 0.83243,1.09343 1.51957,2.04888 3.12776,4.34905 6.70806,7.72981 11.74093,11.08655 5.470463,3.64859 10.723983,6.05775 19.044797,8.73353 3.31256,1.06525 5.496535,2.30346 6.939855,3.93458 0.49565,0.56014 0.49565,0.56914 0,0.54128 -0.27722,-0.0156 -1.03981,-0.13952 -1.69466,-0.27542 z"
           id="path369"
           sodipodi:nodetypes="csssssssssssssscssccssssssssc" /><path
           style="fill:#c87137;stroke-width:0.264583"
           d="m 108.80758,212.09077 c 11.62397,-2.41226 17.30146,-4.10062 21.82813,-6.49117 1.57216,-0.83027 5.86372,-3.49432 6.61458,-4.1061 2.5839,-2.10531 5.93928,-5.05134 6.45735,-5.66959 0.35009,-0.41778 1.12399,-1.30394 1.71979,-1.96925 1.16833,-1.30463 1.30947,-1.4807 2.99133,-3.73164 2.69174,-3.6025 5.66344,-9.47719 7.23924,-14.31105 3.87414,-11.88414 3.36256,-25.39258 -1.50815,-39.82316 -1.52533,-4.51914 -3.70058,-9.37628 -5.75642,-12.85358 -0.6717,-1.13612 -1.22126,-2.10827 -1.22126,-2.16033 0,-0.27632 -4.73228,-7.07886 -6.13325,-8.8164 -4.72535,-5.86058 -11.45465,-12.252413 -19.12407,-18.165013 -2.07994,-1.6035 -6.62887,-5.24782 -6.75727,-5.41351 -0.0728,-0.0939 -0.60746,-0.52161 -1.18823,-0.95048 -0.58076,-0.42887 -1.76471,-1.34474 -2.631,-2.03526 -1.76613,-1.40781 -1.9911,-1.3409 -1.99733,0.59404 -0.009,2.78226 1.74939,8.75496 3.41911,11.61392 1.26272,2.16208 3.57638,4.382983 7.07754,6.793803 9.37043,6.45225 17.9782,14.71097 22.93871,22.00852 2.24006,3.1011 4.21039,6.67591 5.67869,10.38376 3.16035,8.41673 4.31468,13.58809 4.81335,21.56354 0.42081,6.73028 -0.43459,13.10104 -2.52094,18.77511 -0.64337,1.74969 -3.81487,8.03174 -4.38941,8.69444 -0.14862,0.17143 -0.83243,1.09343 -1.51957,2.04888 -3.12776,4.34905 -6.70806,7.72981 -11.74093,11.08655 -5.47046,3.64859 -10.72398,6.05775 -19.04479,8.73353 -3.31256,1.06525 -5.49653,2.30346 -6.93985,3.93458 -0.49565,0.56014 -0.49565,0.56914 0,0.54128 0.27722,-0.0156 1.03981,-0.13952 1.69465,-0.27542 z"
           id="path369-6"
           sodipodi:nodetypes="csssssssssssssscssccssssssssc" /></g><g
         id="g845"><path
           style="fill:#784421;stroke-width:0.264583"
           d="m 103.59774,205.74255 c -0.33469,-0.14051 -1.46578,-0.44982 -2.51354,-0.68735 -4.41751,-1.00148 -12.428504,-3.52683 -15.398774,-4.85424 -0.58209,-0.26013 -1.35599,-0.5637 -1.7198,-0.67461 -1.12583,-0.34321 -4.802763,-2.25586 -6.746873,-3.50955 -3.64165,-2.34838 -5.75731,-4.21809 -8.52225,-7.53148 -3.17589,-3.80585 -5.31067,-7.86176 -6.79159,-12.90343 -1.33512,-4.5453 -2.17465,-10.97627 -1.92635,-14.75627 0.15,-2.28358 0.26118,-3.14092 1.00281,-7.73332 0.96851,-5.99735 5.00716,-15.48962 8.72428,-20.5052 0.43139,-0.58209 1.06244,-1.47506 1.40233,-1.98438 0.77074,-1.15493 2.84772,-3.46213 5.59728,-6.21771 1.16163,-1.16416 3.34536,-3.46257 4.852733,-5.10756 3.6516,-3.98498 7.2884,-7.23838 12.064934,-10.79303 3.43993,-2.55997 5.50986,-4.43871 7.05093,-6.39969 1.83081,-2.329664 3.52979,-6.017324 3.92703,-8.523674 0.4402,-2.77738 0.46622,-2.87936 0.50072,-1.96236 0.11492,3.05465 1.93521,7.5729 4.22455,10.486034 1.54107,1.96098 3.611,3.83972 7.05093,6.39969 4.77653,3.55465 8.41333,6.80805 12.06493,10.79303 1.50737,1.64499 3.69109,3.9434 4.85272,5.10756 2.74957,2.75558 4.82655,5.06278 5.59728,6.21771 0.33989,0.50932 0.97095,1.40229 1.40234,1.98438 3.71712,5.01558 7.75577,14.50785 8.72428,20.5052 0.74163,4.5924 0.8528,5.44974 1.0028,7.73332 0.2483,3.78 -0.59122,10.21097 -1.92634,14.75627 -1.48092,5.04167 -3.61571,9.09758 -6.7916,12.90343 -2.76493,3.31339 -4.8806,5.1831 -8.52224,7.53148 -1.94411,1.25369 -5.62104,3.16634 -6.74688,3.50955 -0.3638,0.11091 -1.13771,0.41448 -1.71979,0.67461 -2.9233,1.30642 -9.7184,3.45338 -15.875,5.01583 -2.89989,0.73594 -4.04503,0.86029 -4.84185,0.52576 z"
           id="path375" /><g
           id="g833"><g
             id="g818"><path
               style="fill:#ffffff;stroke-width:0.264583"
               d="m 98.704717,191.87371 c -0.90303,-0.2072 -2.53485,-0.52144 -3.62625,-0.69833 -1.09141,-0.17688 -2.69875,-0.48184 -3.57188,-0.67769 -2.1128,-0.47392 -6.26449,-0.45811 -8.59792,0.0328 -1.03711,0.21816 -3.42614,0.47462 -5.30897,0.56991 l -3.42331,0.17326 v -27.16054 c 0,-25.80156 0.0234,-27.16054 0.46803,-27.16054 0.25741,0 1.34738,-0.36946 2.42213,-0.82103 2.07116,-0.8702 3.22244,-0.90245 4.74438,-0.13288 0.5522,0.27922 0.92236,0.28999 1.75475,0.0511 l 1.05492,-0.30281 -1.3195,-0.62036 c -0.72573,-0.3412 -2.20189,-0.90046 -3.28035,-1.2428 -2.36786,-0.75165 -3.8108,-1.70288 -4.36968,-2.88063 -0.7631,-1.60812 -0.41559,-2.57152 1.10297,-3.05778 0.54682,-0.1751 1.24924,-0.55048 1.56093,-0.83419 l 0.5667,-0.51582 1.23363,1.31885 c 1.41702,1.5149 2.48859,2.09447 4.46818,2.41666 1.56236,0.25428 4.65662,-0.17258 6.3277,-0.87291 2.21551,-0.9285 3.91782,-2.88563 4.79128,-5.50851 0.73349,-2.20259 1.49267,-6.58848 1.49267,-8.62339 v -1.99019 l 1.12448,0.13677 c 3.093683,0.37628 3.469703,1.10629 3.440243,6.67892 -0.0139,2.62873 -0.16787,4.63876 -0.45602,5.95312 -0.55307,2.52284 -0.99419,28.057 -0.87875,50.86624 0.0425,8.40388 0.0423,15.27973 -5.3e-4,15.27968 -0.0429,-5e-5 -0.816758,-0.16961 -1.719783,-0.37682 z"
               id="path379-3" /><text
               xml:space="preserve"
               transform="matrix(0.8600322,0,0,1.5126746,-174.90993,-692.27988)"
               id="text607"
               style="font-style:normal;font-weight:normal;font-size:40px;line-height:1.25;font-family:sans-serif;white-space:pre;shape-inside:url(#rect609);fill:#502d16;fill-opacity:1;stroke:none"><tspan
                 x="290.68359"
                 y="581.04102"
                 id="tspan1079">B</tspan></text></g><g
             id="g823"><path
               style="fill:#ffffff;stroke-width:0.264583"
               d="m 111.29563,191.8739 c 0.90303,-0.2072 2.53485,-0.52144 3.62625,-0.69833 1.09141,-0.17688 2.69875,-0.48184 3.57188,-0.67769 2.1128,-0.47392 6.26449,-0.45811 8.59792,0.0328 1.03711,0.21816 3.42614,0.47462 5.30897,0.56991 l 3.42331,0.17326 v -27.16054 c 0,-25.80156 -0.0234,-27.16054 -0.46803,-27.16054 -0.25741,0 -1.34738,-0.36946 -2.42213,-0.82103 -2.07116,-0.8702 -3.22244,-0.90245 -4.74438,-0.13288 -0.5522,0.27922 -0.92236,0.28999 -1.75475,0.0511 l -1.05492,-0.30281 1.3195,-0.62036 c 0.72573,-0.3412 2.20189,-0.90046 3.28035,-1.2428 2.36786,-0.75165 3.8108,-1.70288 4.36968,-2.88063 0.7631,-1.60812 0.41559,-2.57152 -1.10297,-3.05778 -0.54682,-0.1751 -1.24924,-0.55048 -1.56093,-0.83419 l -0.5667,-0.51582 -1.23363,1.31885 c -1.41702,1.5149 -2.48859,2.09447 -4.46818,2.41666 -1.56236,0.25428 -4.65662,-0.17258 -6.3277,-0.87291 -2.21551,-0.9285 -3.91782,-2.88563 -4.79128,-5.50851 -0.73349,-2.20259 -1.49267,-6.58848 -1.49267,-8.62339 v -1.99019 l -1.12448,0.13677 c -3.09369,0.37628 -3.46971,1.10629 -3.44025,6.67892 0.0139,2.62873 0.16787,4.63876 0.45602,5.95312 0.55307,2.52284 0.99419,28.057 0.87875,50.86624 -0.0425,8.40388 -0.0423,15.27973 5.3e-4,15.27968 0.0429,-5e-5 0.81676,-0.16961 1.71979,-0.37682 z"
               id="path379" /><text
               xml:space="preserve"
               transform="matrix(0.8600322,0,0,1.5126746,-140.21877,-692.27988)"
               id="text607-5"
               style="font-style:normal;font-weight:normal;font-size:40px;line-height:1.25;font-family:sans-serif;white-space:pre;shape-inside:url(#rect609-7);display:inline;fill:#502d16;fill-opacity:1;stroke:none"><tspan
                 x="290.68359"
                 y="581.04102"
                 id="tspan1081">N</tspan></text></g></g></g></g></g></svg>
