<?xml version="1.0" encoding="UTF-8" standalone="no"?>
<!-- Created with Inkscape (http://www.inkscape.org/) -->

<svg
   width="100mm"
   height="100mm"
   viewBox="0 0 100.00001 100"
   version="1.1"
   id="svg8"
   inkscape:version="1.2.2 (b0a8486541, 2022-12-01)"
   sodipodi:docname="The Sun.svg"
   xmlns:inkscape="http://www.inkscape.org/namespaces/inkscape"
   xmlns:sodipodi="http://sodipodi.sourceforge.net/DTD/sodipodi-0.dtd"
   xmlns="http://www.w3.org/2000/svg"
   xmlns:svg="http://www.w3.org/2000/svg"
   xmlns:rdf="http://www.w3.org/1999/02/22-rdf-syntax-ns#"
   xmlns:cc="http://creativecommons.org/ns#"
   xmlns:dc="http://purl.org/dc/elements/1.1/">
  <defs
     id="defs2" />
  <sodipodi:namedview
     id="base"
     pagecolor="#ffffff"
     bordercolor="#666666"
     borderopacity="1.0"
     inkscape:pageopacity="0.0"
     inkscape:pageshadow="2"
     inkscape:zoom="1.979899"
     inkscape:cx="104.29825"
     inkscape:cy="201.77797"
     inkscape:document-units="mm"
     inkscape:current-layer="svg8"
     showgrid="false"
     inkscape:window-width="1920"
     inkscape:window-height="1011"
     inkscape:window-x="0"
     inkscape:window-y="32"
     inkscape:window-maximized="1"
     units="px"
     inkscape:showpageshadow="2"
     inkscape:pagecheckerboard="0"
     inkscape:deskcolor="#d1d1d1" />
  <metadata
     id="metadata5">
    <rdf:RDF>
      <cc:Work
         rdf:about="">
        <dc:format>image/svg+xml</dc:format>
        <dc:type
           rdf:resource="http://purl.org/dc/dcmitype/StillImage" />
      </cc:Work>
    </rdf:RDF>
  </metadata>
  <g
     id="g1515"
     transform="matrix(0.07492452,0,0,0.07481286,4.6318633,73.29687)"
     clip-path="none"
     inkscape:label="The Sun"
     style="stroke-width:8.32124;stroke-dasharray:none">
    <g
       id="g1453"
       inkscape:label="The Sun's Rays"
       style="stroke-width:8.32124;stroke-dasharray:none">
      <path
         style="fill:#670913;fill-opacity:1;stroke:#000000;stroke-width:8.32124;stroke-dasharray:none;stroke-opacity:1"
         d="m 606.97218,275.51175 c -0.14531,-0.1819 -0.87426,-1.9842 -1.61988,-4.005 -0.99378,-2.6934 -1.3557,-4.046 -1.3557,-5.0663 0,-0.9979 -0.18632,-1.7178 -0.65828,-2.5433 -0.48639,-0.8509 -0.65911,-1.5427 -0.66146,-2.6496 -0.003,-1.583 -0.97293,-6.0695 -1.64894,-7.6301 -0.22063,-0.5093 -0.89551,-1.4828 -1.49974,-2.1633 -0.60423,-0.6806 -1.28963,-1.6926 -1.5231,-2.249 -0.81147,-1.9337 -7.76681,-22.4025 -7.76681,-22.8569 0,-0.2514 0.40994,-1.3326 0.91098,-2.4028 0.76642,-1.6368 0.96123,-2.4493 1.2274,-5.1185 0.56902,-5.7059 -0.066,-11.2605 -1.89068,-16.5386 -0.57857,-1.6735 -1.22052,-3.6202 -1.42663,-4.3261 -0.20609,-0.7059 -0.56111,-1.4893 -0.78891,-1.7411 -1.31437,-1.4523 -5.7285,-8.6289 -7.40622,-12.0412 -2.2783,-4.6337 -3.5279,-7.8969 -4.79639,-12.5252 -0.85233,-3.11 -0.91081,-3.5815 -0.91081,-7.3456 0,-3.4327 -0.0767,-4.1958 -0.52353,-5.2058 -0.28794,-0.651 -0.59618,-2.0056 -0.68495,-3.0102 l -0.16145,-1.8267 1.82859,-3.5719 c 1.00573,-1.9645 2.21369,-4.6434 2.68433,-5.9531 0.47067,-1.3097 1.13099,-2.798 1.46738,-3.3073 0.33639,-0.5093 0.98356,-1.5938 1.43817,-2.4099 l 0.82656,-1.4838 0.0116,-8.6804 0.0116,-8.6803 -1.22105,-1.8363 c -0.81873,-1.2312 -1.61213,-2.978 -2.40784,-5.30105 -1.97244,-5.75855 -5.58623,-12.33088 -7.42207,-13.4984 -0.55377,-0.35219 -1.79969,-1.39965 -2.7687,-2.3277 -1.48061,-1.41801 -1.7911,-1.87029 -1.94514,-2.83335 -0.12481,-0.78046 -0.59841,-1.69447 -1.48474,-2.86546 -1.5299,-2.02128 -2.17688,-3.22461 -2.60956,-4.85357 -0.1737,-0.65402 -0.53146,-1.42727 -0.79499,-1.71831 -0.57692,-0.63714 -1.63412,-3.92462 -2.40046,-7.46445 -0.426,-1.96781 -0.59412,-3.89223 -0.69998,-8.01368 -0.16973,-6.60834 0.1347,-9.0198 2.17085,-17.1949 0.77968,-3.13036 1.61261,-6.67353 1.85098,-7.87373 0.23838,-1.20018 0.84235,-3.39646 1.34215,-4.88064 0.57129,-1.69632 0.90876,-3.20768 0.90876,-4.06969 0,-0.94297 0.22725,-1.85642 0.72761,-2.9246 l 0.7276,-1.55331 -0.0665,-5.73358 c -0.0632,-5.45433 -0.0974,-5.7958 -0.70245,-7.01146 -0.40039,-0.80449 -0.93636,-2.93042 -1.44682,-5.73878 -0.59862,-3.2934297 -0.9906,-4.7676397 -1.4977,-5.6329597 -1.54405,-2.63472 -8.7667,-11.12062 -12.79395,-15.03161 -1.182,-1.14789 -1.35274,-1.4473 -1.35782,-2.3812503 -0.003,-0.58756 -0.24992,-1.60406 -0.54829,-2.25891 -1.19211,-2.61625 -2.36167,-18.64487 -1.56356,-21.42778 0.14499,-0.50549 0.34034,-2.2311 0.43413,-3.83471 0.13721,-2.34585 0.29832,-3.17093 0.82434,-4.22199 0.37308,-0.74549 0.71614,-1.99392 0.79901,-2.90777 0.0798,-0.88077 0.36375,-1.95979 0.63087,-2.39781 0.40418,-0.66276 0.48586,-1.36422 0.48668,-4.18037 0,-2.91557 0.078,-3.53491 0.55726,-4.47436 0.55312,-1.08419 0.55378,-1.11385 0.1165,-5.215 -0.27498,-2.57902 -0.59105,-4.3571 -0.84349,-4.74511 -0.5655,-0.86921 -1.32559,-3.35471 -1.5276,-4.99512 -0.45321,-3.68044 -2.98228,-10.11561 -5.50585,-14.00943 -5.61715,-8.66717 -16.02274,-14.99555 -29.90966,-18.19016 -1.07352,-0.24696 -4.52094,-0.53874 -8.59896,-0.72779 -6.50661,-0.30162 -7.03472,-0.28897 -11.96639,0.28642 -9.55329,1.11463 -15.40423,2.71176 -22.3573,6.10282 -4.19261,2.04476 -6.82969,3.62501 -10.21881,6.12352 -0.96369,0.71046 -1.91797,1.29172 -2.12059,1.29172 -0.55255,0 -2.3351,1.00291 -3.57952,2.0139 -0.60624,0.49255 -1.5885,1.6237 -2.18281,2.51368 -0.93014,1.3929 -1.08056,1.81642 -1.08056,3.04244 0,1.24513 -0.11231,1.54919 -0.89286,2.41724 -1.43253,1.59308 -1.98877,2.67898 -1.84735,3.60629 0.0907,0.595 -0.38973,2.19626 -1.71672,5.72104 -1.01351,2.69213 -2.09786,5.46049 -2.40961,6.1519 -1.31266,2.91111 -6.32622,8.49249 -8.727,9.7154 -0.64555,0.32882 -1.99718,0.82605 -3.0036,1.10495 -2.08132,0.57677 -3.50028,1.24312 -5.21536,2.44917 -0.72001,0.50631 -3.7528,1.76615 -7.67292,3.18733 -3.56526,1.29254 -9.10166,3.41164 -12.30312,4.70911 -7.06565,2.86348 -7.27977,2.91145 -8.09255,1.8121 -0.33327,-0.45074 -0.75417,-0.81955 -0.93535,-0.81955 -0.18119,0 -2.08016,0.83344 -4.21992,1.85209 -2.13974,1.01864 -4.239,1.85208 -4.66498,1.85208 -0.52411,0 -0.97676,0.24038 -1.40015,0.74356 -0.54028,0.64206 -1.5849,1.17636 -5.82247,2.97794 -0.29104,0.12374 -1.60073,0.63069 -2.91042,1.12657 -5.91018,2.23766 -12.47809,6.21945 -17.19791,10.4262 -3.87226,3.45133 -4.22805,3.9244 -5.13626,6.82998 -0.81555,2.60905 -1.50616,3.99169 -2.57825,5.16178 -0.34036,0.37147 -1.4954,2.6336603 -2.56675,5.0270803 -3.46761,7.7466899 -6.34421,12.11128 -11.59111,17.5869897 -1.86745,1.94884 -3.39534,3.70068 -3.39534,3.89292 0,0.81643 -3.35738,3.60683 -6.21771,5.16768 -10.7877,5.8868 -22.02995,10.97159 -28.83959,13.04396 -2.76489,0.84143 -7.11068,2.3227 -9.65729,3.29166 -2.54661,0.96898 -5.93754,2.12212 -7.53541,2.56251 -2.60284,0.71737 -3.04888,0.93203 -4.28554,2.06227 -1.17946,1.07794 -1.59022,1.28776 -2.82268,1.44174 -0.92612,0.11571 -1.61142,0.36703 -1.91476,0.70224 -0.84082,0.92908 -2.19964,1.60578 -4.4898,2.23586 -5.45518,1.50087 -12.82338,6.17328 -18.07741,11.46347 -4.49544,4.52638 -9.64065,10.90557 -13.79256,17.10039 -1.57961,2.35685 -3.70343,5.13339 -4.79133,6.26388 -2.27244,2.3614 -3.32689,3.95793 -3.80094,5.75498 -0.30671,1.16266 -0.79084,1.72828 -5.02354,5.86935 -2.57626,2.52048 -4.85842,4.91977 -5.07145,5.33173 -0.21303,0.41196 -1.38645,1.4877 -2.60759,2.39056 -2.44211,1.8056 -8.82678,5.8424 -10.87316,6.8747 -1.79172,0.90387 -6.6671,2.44361 -9.33317,2.94764 -2.88436,0.54531 -7.25805,0.56568 -7.69771,0.0359 -0.6455,-0.77774 -0.1908,-1.5657 1.62084,-2.80871 4.16472,-2.85747 16.62337,-14.29774 16.62337,-15.2645 0,-0.15735 0.66867,-1.09961 1.48594,-2.09391 2.87216,-3.49436 4.91106,-6.77995 7.76435,-12.51194 4.22178,-8.48111 6.49203,-15.02831 8.34175,-24.05687 0.96592,-4.71469 1.51842,-6.23343 2.75617,-7.57621 0.59567,-0.64625 1.08304,-1.33144 1.08304,-1.52265 0,-0.19124 0.53953,-0.87723 1.19896,-1.5244 0.66722,-0.65484 1.32897,-1.61062 1.4921,-2.15511 0.16122,-0.53814 0.72666,-1.50302 1.25651,-2.14424 0.52986,-0.64119 1.29727,-2.01684 1.70536,-3.05699 0.68308,-1.74107 1.0605,-2.21351 4.75442,-5.95154 3.049,-3.08539 4.93284,-4.72186 7.84561,-6.81538 4.27556,-3.07297 7.30241,-5.48388 10.45433,-8.32691 1.16417,-1.05008 2.55452,-2.09153 3.08967,-2.31434 0.57087,-0.23767 2.68902,-2.0815797 5.12509,-4.4615297 3.87588,-3.78656 4.22037,-4.20408 5.17856,-6.27621006 0.56457,-1.22092 1.02647,-2.60492994 1.02647,-3.07559994 0,-0.47069 0.1855,-1.37676 0.41225,-2.01353 0.80894,-2.27187 2.29883,-8.3350903 2.52754,-10.2858603 0.12793,-1.09141 0.41743,-2.75829 0.64336,-3.70417 0.2259,-0.94589 0.51652,-3.14854 0.64582,-4.89479 0.12933,-1.74625 0.4258,-4.78235 0.65884,-6.74688 0.23305,-1.96453 0.5265,-4.66447 0.65209,-5.99985 0.21532,-2.28917 0.33764,-2.64459 2.13966,-6.21771 2.22885,-4.41941 2.25063,-4.45119 3.05205,-4.45119 1.04,0 8.5802,-2.2684 11.90792,-3.5824 11.23093,-4.43474 20.5858,-11.21474 26.52998,-19.22781 3.5192,-4.74408 6.50793,-10.22363 8.86677,-16.25637 0.92049,-2.35413 3.84387,-11.6904 5.08236,-16.23134 1.21298,-4.44743 4.29993,-12.44835 7.03749,-18.24008 1.11646,-2.36204 1.87203,-3.59442 2.67655,-4.36563 0.80928,-0.77573 1.39613,-1.73659 2.11058,-3.45575 1.06048,-2.55175 4.34989,-8.2945 5.38838,-9.40718 0.34697,-0.37177 0.63087,-0.80656 0.63087,-0.96621 0,-0.44569 3.97658,-4.7073 6.74198,-7.22524 1.88373,-1.71513 2.82263,-2.37122 3.93398,-2.74899 0.94406,-0.32089 1.81647,-0.86709 2.46949,-1.54609 0.55536,-0.57748 1.48601,-1.26043 2.06809,-1.51768 0.58209,-0.25726 1.59425,-0.94279 2.24925,-1.52342 0.655,-0.58063 1.56099,-1.13697 2.01332,-1.23632 0.45233,-0.0994 1.14329,-0.51551 1.53543,-0.92485 0.39217,-0.40931 1.94858,-1.30945 3.45874,-2.00028 l 2.74571,-1.25608 2.36403,-2.94777 c 2.65028,-3.30476 5.13911,-6.86758 7.15137,-10.2374 0.74308,-1.24438 1.89778,-3.08985 2.56601,-4.10104 1.77834,-2.6911 5.23968,-9.87007 6.34788,-13.16582 2.10619,-6.26378 3.04303,-13.14281 2.53262,-18.59706 -0.33668,-3.59778 -1.56951,-10.48785 -2.42006,-13.52524 -1.70704,-6.09608 -4.77626,-11.70019 -9.48693,-17.32227 -3.54039,-4.22535 -8.37721,-8.00235 -13.20784,-10.31375 -1.2613,-0.60354 -3.71203,-1.87156 -5.44605,-2.81787 l -3.15278,-1.72053 -4.91702,-0.0236 c -6.57735,-0.0313 -7.81309,0.22577 -10.3737,2.15821 -1.07341,0.81007 -2.60649,1.7817 -3.40685,2.15916 -1.40187,0.66114 -1.62494,0.68535 -6.08542,0.66008 -4.058,-0.023 -4.81074,-0.0961 -6.09103,-0.59169 -2.53238,-0.9802 -4.3062,-2.19255 -4.53887,-3.10213 -0.16571,-0.64778 -1.09419,-1.47439 -4.64434,-4.1347 -5.49312,-4.11628 -7.7425,-5.58602 -11.37917,-7.435 -4.50996,-2.29301 -7.42924,-3.36339 -9.17308,-3.36339 -1.05781,0 -1.86674,-0.18719 -2.75574,-0.63767 -1.25093,-0.63389 -1.28702,-0.63627 -6.0728,-0.40222 -2.64792,0.12949 -6.07864,0.42318 -7.62381,0.6526 -2.90396,0.43121 -9.03528,1.87282 -9.50137,2.23401 -0.62495,0.48429 -8.9149,1.17993 -14.15521,1.18782 l -5.42396,0.008 -2.91042,-1.01719 c -5.4048,-1.88894 -6.84781,-2.71177 -9.78958,-5.58205 -1.45521,-1.41983 -2.97839,-2.75399 -3.38485,-2.96479 -0.40645,-0.21077 -1.14336,-1.01534 -1.63756,-1.78789 -0.76757,-1.19992 -1.21908,-1.56938 -3.09745,-2.5345 -1.20939,-0.62143 -3.2664,-1.79642 -4.57112,-2.61109 l -2.37223,-1.48127 -4.77152,-0.003 c -4.39964,-0.003 -4.97525,0.0535 -7.3855,0.72401 -1.43769,0.39997 -3.34269,1.07116 -4.23334,1.49159 -0.89064,0.42042 -3.40529,1.19747 -5.5881,1.72675 -5.00011,1.2124 -10.80278,2.9197 -15.74271,4.6319 l -3.83646,1.32974 -3.48838,0.004 c -3.8241,0.005 -5.7023,-0.30319 -9.7338,-1.59462 -5.2021,-1.66637 -7.672,-2.95696 -11.6486,-6.08671 -1.1352,-0.89347 -2.1529,-1.41735 -3.5719,-1.8388 -2.5258,-0.75018 -3.7463,-1.37581 -5.1195,-2.62419 -1.5394,-1.39933 -5.5379,-2.40366 -9.57,-2.40366 -2.0754,0 -3.016,-0.11205 -3.6373,-0.43334 -0.7031,-0.36364 -1.35,-0.405 -4.0217,-0.25712 -5.6773,0.31422 -10.9265,1.23206 -17.0744,2.98553 -2.3344,0.66577 -2.8814,0.7179 -7.6729,0.73094 -4.8667,0.0132 -5.3892,-0.0354 -9.2093,-0.85722 -2.2274,-0.47919 -5.1021,-1.2151 -6.3881,-1.63537 -2.8496,-0.93117 -7.796802,-3.26734 -8.591402,-4.05699 -0.3196,-0.3176 -1.0125,-0.90482 -1.5397,-1.30489 -0.5273,-0.40011 -1.0349,-0.96764 -1.1281,-1.26122 -0.093,-0.29358 -0.6072,-0.76195 -1.1424,-1.04084 -0.5351,-0.27888 -2.2204,-1.52647 -3.745,-2.77239 -2.1097,-1.72397 -3.1213,-2.36675 -4.2334,-2.68973 -0.8036,-0.23341 -2.1756,-0.75692 -3.0487,-1.16337 -6.3543,-2.95788 -14.6337,-3.19709 -22.3333,-0.64527 -5.1602,1.71027 -8.5313,2.28066 -14.3115,2.42158 -4.4757,0.10911 -5.6151,0.0488 -8.598903,-0.45485 -4.1832,-0.70614 -8.2349,-1.90738 -12.4789,-3.6998 -4.1202,-1.73982 -5.6451,-2.69581 -5.6451,-3.53867 0,-1.16827 0.5845,-1.36512 3.0114,-1.01423 2.8338,0.40974 9.318,0.37936 11.673,-0.0546 1.3323,-0.24556 3.3741,-1.06582 7.276003,-2.92309 2.9832,-1.41997 6.2574,-2.91502 7.2761,-3.32232 4.5799,-1.83126 11.4208,-6.78979 16.7097,-12.11173 l 2.8694,-2.88737 5.1594,-0.30888 c 6.4692,-0.38729 9.476,-0.37391 15.4922,0.069 4.5371,0.33399 4.9577,0.41307 8.3907,1.57761 2.4228,0.8219 4.0563,1.226 4.9556,1.226 0.930602,0 1.764502,0.21574 2.721902,0.70413 1.6437,0.83858 4.0063,1.39031 6.0104,1.40359 0.8004,0.005 2.4673,0.18794 3.7042,0.40582 2.9046,0.51165 9.6137,0.52287 12.2394,0.0204 1.0819,-0.20701 3.8606,-1.00099 6.1748,-1.7644 3.1677,-1.04497 4.4449,-1.5985 5.1676,-2.23962 0.528,-0.46839 1.8674,-1.46396 2.9766,-2.21239 1.1091,-0.74845 2.0166,-1.47891 2.0166,-1.62327 0,-0.14436 0.8892,-1.21333 1.9761,-2.37548 1.0868,-1.16216 2.4413,-2.7966 3.01,-3.6321 0.5686,-0.83547 1.7332,-2.15889 2.5879,-2.94092 0.8548,-0.78203 2.2685,-2.09611 3.1416,-2.92021 1.9723,-1.86155 3.2438,-2.81371 4.1011,-3.07125 0.3638,-0.10928 1.0534,-0.54055 1.5324,-0.95835 2.097,-1.82912 9.6567,-4.91964 14.9131,-6.09672 2.4864,-0.55678 3.366,-0.61195 9.6159,-0.60293 7.9224,0.0114 10.5299,0.37058 16.24077,2.23695 6.95025,2.27139 12.26864,2.9197 20.70727,2.5242 l 4.13602,-0.19383 0.88923,-1.1956 c 1.0289,-1.38337 4.20478,-4.18026 6.31319,-5.55977 0.80036,-0.52366 2.04893,-1.60819 2.77459,-2.41006 1.53235,-1.69328 4.17337,-3.06584 7.80874,-4.05829 2.04667,-0.55872 2.76064,-0.61153 7.9375,-0.58729 5.62689,0.0264 5.7459,0.0388 10.98021,1.14374 6.1902,1.30675 16.70145,3.74303 20.10833,4.66063 6.26655,1.68786 14.32796,2.22261 19.84375,1.31636 1.30969,-0.21521 2.79797,-0.39116 3.3073,-0.39103 1.44645,0 16.71902,-5.28466 17.18431,-5.94654 1.16414,-1.65602 3.25634,-3.40024 5.56985,-4.64349 3.33145,-1.79027 7.08372,-3.57835 9.525,-4.539 1.09141,-0.42947 2.34157,-0.94149 2.77813,-1.13781 1.5821,-0.7115 6.95341,-2.33067 10.18646,-3.07071 6.74902,-1.54484 10.28015,-1.91852 18.38854,-1.94587 4.07459,-0.0138 9.03613,0.076 11.02564,0.19944 l 3.6173,0.22442 3.31632,-3.35259 c 1.82396,-1.84393 3.39458,-3.59923 3.49025,-3.90065 0.0957,-0.30144 0.88773,-1.63218 1.76011,-2.95724 1.83923,-2.79353 4.34959,-7.86604 5.34072,-10.79154 0.3787,-1.11778 1.28281,-4.392 2.00914,-7.27604 0.72634,-2.88404 1.86553,-7.08919 2.53156,-9.34477 l 1.21098,-4.10104 -0.2703,-3.83646 c -0.16082,-2.28261 -0.5437,-4.98755 -0.94528,-6.67856 -0.37124,-1.56313 -0.67498,-3.2616 -0.67498,-3.77431 0,-0.53766 -0.32708,-1.51847 -0.77277,-2.31727 -0.42502,-0.76179 -1.50593,-3.37082 -2.40199,-5.79787 l -1.6292,-4.41277 -2.0298,-1.82179 c -1.11639,-1.00198 -2.62509,-2.22366 -3.3527,-2.71484 -3.34338,-2.257 -8.87989,-6.92957 -13.76664,-11.61849 -1.71312,-1.64375 -3.59066,-3.1697 -4.54546,-3.69427 -0.89469,-0.49154 -2.80461,-1.82131 -4.24424,-2.95505 -2.51663,-1.98186 -2.62974,-2.11571 -2.9346,-3.47192 -0.17436,-0.77581 -0.72974,-2.12494 -1.23412,-2.99807 -1.60163,-2.77249 -4.30869,-8.23799 -13.89107,-28.04583 -6.72312,-13.89746 -9.61541,-19.61142 -10.3123,-20.37292 -0.53268,-0.58208 -1.18091,-1.40097 -1.44047,-1.81973 -1.55369,-2.50655 -11.8877,-12.63076 -18.72739,-18.34711 -2.86385,-2.3935 -4.59058,-4.14787 -8.20209,-8.33339 -2.516,-2.91592 -4.95437,-5.79247 -5.41864,-6.39239 -0.46424,-0.59989 -1.37628,-1.6265 -2.02671,-2.28134 -0.65045,-0.65485 -1.31498,-1.60735 -1.47674,-2.11667 -0.16177,-0.50932 -1.06543,-1.80943 -2.00816,-2.88914 -0.94274,-1.07971 -1.71408,-2.17623 -1.71408,-2.43671 0,-0.26046 -0.29453,-0.74668 -0.65453,-1.08048 -0.35999,-0.3338 -1.42356,-2.32603 -2.36349,-4.42714 -1.63767,-3.66091 -1.85587,-3.99632 -5.23243,-8.0431 -1.93794,-2.32259 -3.66612,-4.47262 -3.8404,-4.77785 -0.17431,-0.30522 -0.39185,-1.13313 -0.48345,-1.8398 -0.12708,-0.98034 -0.40232,-1.54469 -1.16141,-2.38125 -0.54716,-0.60301 -1.34853,-1.81078 -1.78081,-2.68391 -2.35524,-4.75734 -6.93944,-10.9946 -11.04003,-15.02106 -2.91531,-2.86263 -7.61786,-6.45303 -11.17566,-8.53265 -1.43921,-0.84124 -3.24091,-1.89331 -4.00378,-2.33791 -4.94416,-2.88132 -10.42875,-9.48698 -14.09072,-16.97078 -1.77036,-3.61801 -3.43996,-8.23671 -3.43996,-9.51613 0,-0.47628 -0.22876,-1.58205 -0.50836,-2.45727 -0.27959,-0.87519 -0.5883,-2.17064 -0.68603,-2.87872 -0.363,-2.6303 -1.99206,-8.63975 -3.12594,-11.53136 -0.64383,-1.6419 -1.31962,-3.46152 -1.50177,-4.0436 -0.18214,-0.58208 -0.79366,-1.9513 -1.35893,-3.04271 -0.56526,-1.09141 -1.1566,-2.52016 -1.31408,-3.175 -0.24675,-1.02605 -0.80871,-1.72093 -4.06551,-5.02708 -2.15354,-2.18619 -3.88596,-4.17217 -4.02742,-4.61691 -0.20267,-0.63719 -0.88765,-1.14752 -3.73181,-2.78033 -4.29823,-2.46758 -8.87172,-5.64038 -12.35619,-8.57197 -5.31426,-4.47103 -12.71597,-12.63672 -13.83767,-15.26592 -0.276,-0.64698 -0.6495,-1.77165 -0.8301,-2.49925 -0.2825,-1.13856 -0.5646,-1.52059 -2.0245,-2.7414 l -1.6963,-1.41848 v -5.36214 c 0,-5.76369 0.077,-6.0954 1.3674,-5.91027 0.7011,0.10056 1.3714,1.18635 2.7413,4.4405 0.6969,1.65532 1.3344,2.65337 2.45026,3.83646 3.78845,4.01643 11.94804,11.25637 12.6862,11.25637 0.19786,0 1.35055,0.59631 2.56152,1.32514 5.63149,3.38929 12.67479,5.98965 20.43677,7.54515 7.21647,1.44618 9.79472,1.71264 16.60955,1.71654 l 6.10224,0.004 1.85208,1.03891 c 1.01864,0.5714 2.98318,1.93508 4.36562,3.0304 1.38245,1.09533 2.86874,2.07055 3.30287,2.16717 0.51862,0.11543 1.60752,1.01474 3.175,2.62222 1.31212,1.34559 2.76955,2.64118 3.23874,2.87909 0.91769,0.46534 3.92753,3.77986 6.32466,6.96488 2.04475,2.71686 4.38753,6.49481 5.8316,9.40404 0.94835,1.91058 3.57045,6.7539 5.07095,9.36668 1.00365,1.74763 3.73587,5.15476 5.58903,6.96961 1.6323,1.59856 2.49492,2.68367 2.98276,3.75211 0.67982,1.48881 0.74377,1.54146 6.71026,5.52487 7.18338,4.79587 12.45158,7.49851 18.44394,9.46195 3.74417,1.2268 7.76036,2.1675 10.89999,2.55305 4.88855,0.60034 10.67295,2.24951 15.875,4.52609 4.89469,2.14207 12.4129,7.50007 17.8874,12.74776 l 2.55608,2.45023 2.32291,5.22269 c 4.10702,9.2339 8.50813,16.58982 13.9686,23.34667 3.65726,4.5256 3.34682,4.2803 8.00201,6.32233 2.97505,1.305 5.25764,2.53587 7.58518,4.09022 5.9546,3.97653 12.37972,6.89655 20.52748,9.32913 5.53758,1.65325 16.21253,5.6769 23.05723,8.6908 13.18548,5.80586 27.73939,15.62785 38.91357,26.26154 l 2.3028,2.19141 h 1.89264 c 1.79689,0 2.0696,0.0874 5.38943,1.72759 3.68454,1.82039 7.71951,3.24983 11.6926,4.14222 3.09846,0.69596 12.03455,0.9567 16.675,0.48654 4.74276,-0.48054 14.37544,-3.4611 19.71146,-6.09918 2.79818,-1.3834 6.04337,-3.46194 6.42215,-4.1134 0.11245,-0.19338 1.24354,-1.0269 2.51354,-1.85224 1.27,-0.82534 3.0484,-2.09809 3.95195,-2.82831 1.92453,-1.55533 2.18876,-2.1049 5.75479,-11.96843 2.7382,-7.57383 3.17278,-9.79734 3.18032,-16.27188 0.006,-5.46311 -0.62055,-9.006 -1.98112,-11.19622 -0.64955,-1.04563 -0.79163,-1.55927 -0.79163,-2.86168 0,-0.87302 -0.11904,-1.80975 -0.26456,-2.08163 -0.50522,-0.94404 -1.02574,-4.13669 -1.72543,-10.58339 -0.63751,-5.87367 -0.69249,-7.17786 -0.5856,-13.89063 0.11065,-6.94954 0.15309,-7.47323 0.6853,-8.45645 0.47649,-0.88024 0.56737,-1.48868 0.56737,-3.79828 0,-3.09668 0.44556,-5.19456 1.58099,-7.44384 0.4122,-0.81656 1.34326,-3.26686 2.06902,-5.44513 0.72575,-2.17826 2.04687,-5.56336 2.93581,-7.52244 1.21553,-2.67883 1.61655,-3.85967 1.61748,-4.7625 0,-0.69374 0.327,-2.0382 0.77298,-3.1849 1.30866,-3.36481 1.68759,-6.11926 1.52884,-11.1125 -0.13925,-4.37974 -0.74231,-7.7064 -1.89883,-10.47434 -0.86892,-2.07956 -3.05004,-9.89402 -3.05004,-10.9275 0,-0.60985 -0.22217,-1.55056 -0.49374,-2.09047 -0.27154,-0.5399 -0.64918,-1.59863 -0.83915,-2.35273 -0.31613,-1.2548 -0.28271,-1.66991 0.39404,-4.89479 0.40669,-1.93804 1.02246,-4.0853 1.36832,-4.77169 0.5202,-1.03234 0.62886,-1.65111 0.62886,-3.58116 0,-1.77357 0.15701,-2.80692 0.65458,-4.30827 0.36611,-1.10468 0.6576,-2.6097 0.66146,-3.41511 0.007,-1.36483 0.13713,-1.64116 2.50105,-5.29167 2.84568,-4.39441 3.97442,-6.62924 4.41003,-8.73155 0.66937,-3.23053 0.78658,-3.48702 2.3731,-5.19241 0.86384,-0.92856 1.57072,-1.84013 1.57083,-2.0257 1.1e-4,-0.18557 0.34705,-1.07057 0.77097,-1.96667 0.7158,-1.51303 0.89164,-1.68694 2.46491,-2.43779 1.68227,-0.80287 1.70169,-0.82479 2.77667,-3.13324 2.03213,-4.36383 4.10911,-10.80776 4.54422,-14.09866 1.48844,-11.25764 -0.81968,-21.52124 -7.1605,-31.84086 l -1.60025,-2.60441 -0.0382,-6.39143 c -0.0321,-5.36207 0.0403,-6.73232 0.44913,-8.50809 0.89636,-3.8931 3.75052,-9.08498 7.30777,-13.29325 1.0863,-1.28511 1.83898,-2.49867 2.2855,-3.68493 0.79914,-2.12316 1.29719,-2.8648 3.43466,-5.11453 0.89865,-0.94589 1.72487,-2.01745 1.83602,-2.38125 0.11115,-0.36381 0.66178,-1.18466 1.22362,-1.82412 0.56182,-0.63947 1.15996,-1.62478 1.32919,-2.18959 0.18245,-0.60902 0.76107,-1.44486 1.42179,-2.05389 0.7992,-0.73669 1.2664,-1.47795 1.65293,-2.62251 0.29636,-0.87756 1.42555,-3.06151 2.50928,-4.85325 2.77879,-4.59407 2.80678,-4.66145 3.24742,-7.82087 0.21825,-1.56483 0.58105,-3.33099 0.80624,-3.9248 0.32279,-0.85124 0.39142,-1.97513 0.32443,-5.31253 l -0.085,-4.23289 -1.34191,-1.56663 c -0.73806,-0.86165 -1.97237,-2.75726 -2.74291,-4.21247 -2.74114,-5.17664 -5.84772,-8.93592 -9.57316,-11.58452 l -1.7517,-1.24538 -0.16457,-2.3163 c -0.0905,-1.27397 -0.41497,-7.05284 -0.72104,-12.84195 -0.59574,-11.26797 -0.59357,-11.30248 0.70914,-11.30248 0.46598,0 0.8614,0.37592 1.58451,1.50632 0.52998,0.82848 1.59678,2.11472 2.37069,2.85831 0.77388,0.7436 1.59996,1.83405 1.83571,2.42323 0.43103,1.07729 1.82009,2.43071 4.59229,4.47454 1.23272,0.90882 20.71981,22.16141 22.71342,24.77119 0.41018,0.53697 1.31953,1.69943 2.02076,2.58326 1.94371,2.44981 3.45257,6.22413 4.02431,10.06649 0.0974,0.65484 0.52255,1.83685 0.94467,2.62667 0.42211,0.78983 0.7675,1.69802 0.7675,2.0182 0,1.25169 -4.25659,27.23422 -4.50181,27.47945 -0.14337,0.14337 -0.26143,0.98101 -0.26233,1.86141 -0.003,1.802 -0.30046,2.50983 -1.81967,4.31289 -0.88212,1.04692 -1.10712,1.55969 -1.3485,3.07316 -0.19378,1.21511 -0.63286,2.44182 -1.32617,3.70503 -0.57005,1.03865 -1.39899,2.76765 -1.84211,3.84222 l -0.80566,1.95375 v 6.65991 6.6599 l 0.87371,1.43965 c 0.48053,0.7918 1.73921,2.5112 2.79707,3.82089 2.302,2.85002 5.91071,8.2076 7.44188,11.04836 0.72326,1.34187 1.5258,2.39536 2.31791,3.04271 0.98576,0.8056 1.47709,1.55455 2.63578,4.01783 3.04813,6.47993 5.14731,12.39406 6.92115,19.49935 1.48019,5.9289 1.73109,7.81021 1.74168,13.05946 0.009,4.3359 -0.0285,4.69424 -0.58595,5.63752 -0.43857,0.74211 -0.59531,1.4236 -0.59531,2.58848 0,1.13457 -0.1768,1.93367 -0.62593,2.82915 -0.53017,1.05711 -0.64733,1.77403 -0.76591,4.68756 -0.0999,2.4529 -0.27853,3.78113 -0.62286,4.63021 -0.42484,1.04765 -0.4926,2.18897 -0.56438,9.50444 l -0.0815,8.31382 1.21926,2.79868 c 0.67058,1.53928 1.70688,3.92978 2.3029,5.31223 0.596,1.38244 1.46244,2.93026 1.9254,3.43958 0.46297,0.50932 3.20025,5.21229 6.08283,10.45104 2.88258,5.23875 5.58929,10.03847 6.01496,10.66603 2.07055,3.05281 3.10695,6.50559 3.10695,10.35094 0,2.09672 0.1084,2.89922 0.49511,3.66596 0.5048,1.00079 1.09553,3.84283 1.0885,5.23666 -0.003,0.42466 -0.17791,1.06974 -0.39055,1.43354 -0.21265,0.3638 -1.1633,2.20927 -2.11257,4.10104 -1.71627,3.42035 -1.72593,3.45205 -1.72612,5.67031 l -2.1e-4,2.23076 -1.56998,2.66403 c -1.39967,2.37506 -1.59007,2.87319 -1.75493,4.59174 -0.19354,2.01761 0.34779,11.10822 0.68876,11.56608 0.10835,0.14552 0.50663,1.40782 0.88503,2.80511 1.63815,6.04891 4.7139,11.9756 8.88133,17.11349 1.97831,2.43901 4.59459,6.3046 5.53132,8.17258 1.98731,3.96296 2.61102,9.35361 1.75498,15.1682 -0.32517,2.2088 -0.48471,5.58398 -0.58213,12.31509 -0.13142,9.08272 -0.12277,9.29105 0.42307,10.18645 0.30649,0.50274 0.55769,1.11631 0.55824,1.36346 0,0.24714 0.3035,1.40697 0.67323,2.57738 0.52758,1.67008 1.01156,2.54984 2.24896,4.08803 0.8672,1.07796 1.57671,2.13674 1.57671,2.35283 0,0.55218 4.3008,4.06233 8.06979,6.58625 5.59903,3.74941 11.02508,6.06795 17.4625,7.46172 4.80679,1.04071 6.45221,1.21201 11.69607,1.21772 4.75337,0.005 4.83012,0.0143 5.82083,0.69488 l 1.00393,0.68963 4.63021,-0.13787 c 9.63012,-0.28681 19.75567,-2.83874 29.94515,-7.54708 1.89291,-0.87469 2.75251,-1.4953 4.89479,-3.53399 1.42923,-1.36014 3.111,-2.70015 3.73729,-2.97783 0.91242,-0.40452 1.41883,-0.92927 2.54868,-2.64107 0.7755,-1.17491 1.62097,-2.55294 1.87884,-3.06226 0.25783,-0.50933 1.15861,-1.81901 2.00167,-2.91042 1.5484,-2.00443 3.49356,-5.17343 6.73981,-10.98021 1.60992,-2.87975 1.7919,-3.35952 1.95697,-5.15938 0.2146,-2.33976 0.40981,-2.76034 2.33349,-5.02708 1.31548,-1.55006 2.96466,-4.43532 2.96519,-5.18766 1e-4,-0.16108 0.61095,-1.11358 1.35742,-2.11667 6.04954,-8.12935 13.36333,-14.3333 22.32369,-18.93615 6.04181,-3.10362 15.15557,-6.20088 25.5316,-8.6768 1.81901,-0.43405 5.68854,-1.50617 8.59896,-2.38249 2.91042,-0.87633 5.43428,-1.59348 5.60856,-1.59367 0.17431,-1.6e-4 1.30985,-0.35959 2.52341,-0.79872 1.50103,-0.54314 2.62633,-1.16409 3.51957,-1.94207 0.72218,-0.62902 1.66457,-1.23055 2.09423,-1.33676 0.42963,-0.1062 1.56175,-0.92889 2.51579,-1.82824 2.30629,-2.17403 5.19618,-4.62095 6.64223,-5.62409 0.84818,-0.58838 2.03555,-2.06917 4.28501,-5.34395 1.71145,-2.49153 3.21593,-4.59446 3.34333,-4.67317 0.12737,-0.0787 0.73884,-1.30535 1.35882,-2.72585 0.61997,-1.42047 1.46695,-2.97378 1.88219,-3.45178 0.41524,-0.478 0.7552,-1.01378 0.75546,-1.19062 0,-0.17685 0.52076,-1.33356 1.15666,-2.57048 0.6359,-1.23693 1.24648,-2.66325 1.35681,-3.16961 0.11035,-0.50636 0.60187,-1.80115 1.0923,-2.87731 0.74393,-1.63243 0.89223,-2.26904 0.89509,-3.84183 0.003,-1.82518 0.34319,-3.24266 1.54643,-6.44933 0.56965,-1.51815 3.20257,-4.85058 5.37705,-6.80561 1.69646,-1.52527 5.07437,-3.76823 7.4929,-4.97535 5.06253,-2.52676 15.49884,-6.19016 23.68021,-8.31232 4.12482,-1.06994 5.03452,-1.21509 8.33437,-1.32982 3.60686,-0.12541 3.7424,-0.15153 5.15938,-0.99425 1.25082,-0.7439 2.01263,-0.94948 5.42396,-1.46369 3.94835,-0.59516 3.97555,-0.60399 5.29362,-1.71872 0.72869,-0.61627 2.21697,-1.49445 3.30729,-1.95151 1.09032,-0.45706 2.12831,-0.92423 2.30664,-1.03816 0.1783,-0.11392 1.1511,-1.31122 2.16173,-2.66067 1.01065,-1.34944 3.20381,-3.91999 4.87373,-5.71232 1.66989,-1.79233 3.1247,-3.54053 3.23289,-3.88487 0.10819,-0.34435 4.85336,-5.39701 10.54478,-11.22814 5.69143,-5.83112 10.89539,-11.308 11.56433,-12.17083 l 1.21626,-1.56879 15.05562,-3.9082 c 8.28063,-2.14951 15.29973,-3.90568 15.59803,-3.90261 0.6845,0.007 1.1774,0.49001 1.1774,1.15354 0,0.28212 -0.6654,1.32631 -1.4788,2.32042 -2.8025,3.4256 -5.3842,7.52657 -8.0601,12.80351 -1.47581,2.91042 -3.01411,5.64886 -3.41838,6.08542 -0.57251,0.61822 -0.76849,1.14084 -0.88623,2.36327 -0.0899,0.93386 -0.35845,1.84993 -0.66304,2.26189 -1.27177,1.72016 -1.89765,3.40033 -1.89765,5.09421 0,1.34234 -0.12887,1.85683 -0.66145,2.64059 -0.64852,0.95439 -0.66146,1.07229 -0.66146,6.03001 0,5.20241 -0.31155,8.32577 -0.95525,9.57658 -0.20223,0.39296 -0.36767,1.4488 -0.36767,2.34632 0,1.41624 -0.0995,1.74517 -0.75295,2.48941 -0.56073,0.63864 -0.79857,1.24588 -0.93173,2.37875 -0.26498,2.25456 -2.6738,7.81062 -4.64944,10.72418 -0.54132,0.79825 -0.80772,1.51532 -0.80849,2.17593 -0.003,1.63725 -1.46847,4.94004 -2.79742,6.29981 -0.65153,0.6667 -1.17247,1.45254 -1.17247,1.76872 0,1.08217 -0.50321,1.88309 -1.70079,2.70705 -0.66136,0.45504 -2.36496,2.14879 -3.78574,3.76394 -2.68058,3.04723 -3.56465,3.66138 -5.81872,4.0422 -1.22867,0.20759 -5.05415,2.37871 -7.47927,4.24479 -1.27952,0.98457 -1.81792,1.64494 -2.66067,3.26334 -0.58114,1.11596 -1.65074,2.86245 -2.37697,3.8811 -4.62603,6.48888 -10.00125,22.24159 -13.49724,39.55521 -0.9706,4.80687 -1.22473,5.66478 -2.23353,7.54063 -0.62609,1.16417 -1.41447,2.88761 -1.75194,3.82987 -0.55523,1.55011 -0.97677,2.08529 -4.42889,5.62255 -2.09838,2.15017 -5.19806,5.0917 -6.88814,6.53675 -1.6901,1.44505 -8.18663,6.97349 -14.43672,12.2854 -10.74211,9.12963 -11.43283,9.66753 -12.62481,9.83146 -0.96242,0.13237 -1.87394,0.59487 -3.84971,1.95332 -1.42381,0.97893 -3.30311,2.05853 -4.17624,2.39911 -5.51241,2.15021 -13.13408,6.83111 -17.06563,10.48099 -8.03494,7.45926 -12.22954,13.76325 -16.1123,24.21485 -1.8746,5.04603 -4.60156,11.11824 -8.66127,19.28633 -6.22575,12.52606 -8.96726,16.19044 -15.98626,21.3677 -1.39017,1.02536 -2.84482,2.34376 -3.2326,2.9297 -0.38777,0.58597 -1.24468,1.43669 -1.90423,1.89048 -0.65955,0.45376 -1.19917,0.95877 -1.19917,1.1222 0,0.16343 -1.06593,1.34797 -2.36874,2.63231 -1.30281,1.28434 -3.09152,3.28465 -3.97494,4.44514 -0.88339,1.16049 -2.06584,2.47935 -2.62765,2.93084 -0.78698,0.63243 -1.06172,1.07249 -1.19674,1.91685 -0.0964,0.6028 -0.59717,1.73162 -1.11284,2.50852 -1.01431,1.5281 -4.04879,10.38521 -4.05918,11.84804 -0.003,0.44408 -0.33251,2.46814 -0.73189,4.49792 -0.60204,3.0598 -0.72396,4.36877 -0.7134,7.65926 0.0116,3.65773 0.088,4.2694 0.97266,7.80521 1.45074,5.79818 4.12549,13.1594 5.46518,15.04082 0.3546,0.49797 0.68535,1.4196 0.75912,2.11511 0.0719,0.67794 0.28199,1.41121 0.46693,1.62949 0.18495,0.21828 0.61357,0.99205 0.9525,1.71947 0.33894,0.72745 1.24405,1.95043 2.01137,2.71775 0.76731,0.76732 1.39512,1.5829 1.39512,1.81239 0,1.17486 1.02648,2.29751 5.12455,5.60462 l 4.31565,3.48271 8.13226,3.17944 8.13229,3.17945 5.60231,-0.003 c 8.29297,-0.003 15.33904,-0.53681 28.35648,-2.14672 6.35006,-0.78531 6.91087,-0.81267 14.02292,-0.68376 10.25462,0.18589 17.5818,1.22271 23.92238,3.38507 3.79273,1.29347 9.61345,4.16105 13.11929,6.46317 3.14886,2.06772 12.15543,6.58034 15.875,7.95395 3.02353,1.11655 5.04873,1.39992 10.15251,1.4205 6.14847,0.0249 13.794,-1.4256 16.25164,-3.08298 3.32692,-2.24364 8.40282,-4.2986 12.29376,-4.97713 3.00283,-0.52366 9.16622,-0.51152 11.98723,0.0236 4.4256,0.83952 7.0661,1.92582 13.6592,5.61925 7.5456,4.22695 17.297,7.90035 26.2198,9.87705 l 2.7224,0.60312 21.8838,-1.38859 c 23.0073,-1.45984 24.7908,-1.53746 25.0668,-1.09095 0.2482,0.40148 11.0669,7.58124 16.7931,11.14457 8.1422,5.06671 16.4156,9.83564 24.6903,14.23193 l 3.1268,1.66119 10.6316,-0.18619 10.6316,-0.18618 14.1581,-4.34325 c 7.7869,-2.38879 14.5735,-4.33485 15.0812,-4.32456 0.7082,0.0143 2.2784,0.86228 6.744,3.64175 5.3963,3.35881 5.8208,3.67856 5.8208,4.38423 0,1.22473 -0.5289,1.36596 -3.7666,1.00594 -1.5798,-0.17565 -3.6872,-0.31937 -4.6832,-0.31937 -1.7397,0 -1.9572,0.077 -5.544,1.96262 -2.0533,1.07942 -4.6546,2.32781 -5.7807,2.77416 -6.4974,2.57537 -11.7632,5.96905 -18.4469,11.88858 -2.2008,1.94923 -3.4027,2.77778 -5.6994,3.9289 -1.6007,0.8023 -3.2707,1.8016 -3.7111,2.22065 -0.9105,0.86653 -3.0569,1.79948 -6.1046,2.65345 -1.7294,0.48456 -2.973,0.60553 -7.1986,0.70014 -7.3493,0.1646 -8.9062,-0.17954 -19.4432,-4.29755 l -6.4389,-2.51637 h -9.343 -9.3431 l -1.6024,0.81428 c -3.0877,1.56906 -5.3458,3.46282 -6.2557,5.24656 -0.6856,1.34374 -2.1932,2.35259 -7.0112,4.6917 -4.2092,2.04348 -9.4472,3.84558 -13.9035,4.78332 -2.9075,0.61185 -3.9309,0.69702 -8.4666,0.70474 -4.8691,0.008 -5.3675,-0.0387 -8.8582,-0.83558 -2.3949,-0.54671 -5.0996,-0.94816 -7.6729,-1.13884 -2.1858,-0.16198 -6.253,-0.64016 -9.0382,-1.06262 -5.4889,-0.83257 -7.6691,-0.92409 -11.3401,-0.47599 -3.7436,0.45696 -6.8951,1.37491 -10.2389,2.98233 l -3.0887,1.48482 -21.15103,4.8964 c -11.63304,2.69301 -21.55262,4.89154 -22.0435,4.88564 -0.59539,-0.007 -1.19745,-0.27141 -1.80853,-0.79375 -0.50382,-0.43066 -1.05707,-0.78301 -1.22942,-0.78301 -0.17235,0 -2.00445,-1.00766 -4.07133,-2.23922 -5.11013,-3.04496 -9.79596,-4.83333 -16.37569,-6.24991 -3.98026,-0.8569 -4.68416,-0.96261 -8.62836,-1.29556 -3.53737,-0.29858 -3.78756,-0.28673 -5.55625,0.26345 -3.72314,1.15811 -6.36495,3.15981 -9.19787,6.9692 l -1.91463,2.57456 -6.08539,2.90639 c -3.34695,1.59854 -6.50211,3.24033 -7.01146,3.64848 -0.50932,0.40814 -1.38046,1.34556 -1.93582,2.08314 -0.96451,1.28095 -1.13763,1.38353 -3.8639,2.28915 -6.75193,2.24292 -11.93247,3.07853 -18.97279,3.0603 -5.79665,-0.0151 -12.75123,-0.77504 -14.51814,-1.58663 -0.54234,-0.2491 -1.15964,-0.40899 -5.29167,-1.37067 -1.94606,-0.45291 -3.29996,-0.55854 -7.40833,-0.57793 -5.66883,-0.0267 -7.48316,0.31986 -11.05297,2.11143 -2.69359,1.35181 -3.68996,2.10764 -7.16664,5.43658 -3.19275,3.05707 -5.89603,6.36434 -7.19518,8.80279 -0.39635,0.74393 -1.17261,1.96244 -1.72501,2.70783 -0.80211,1.0823 -1.04105,1.6792 -1.18639,2.96383 -0.15526,1.37216 -0.31231,1.7272 -1.06873,2.41552 -1.22888,1.11823 -1.59711,1.94297 -2.06539,4.62576 -0.2231,1.27823 -0.51202,2.45975 -0.64204,2.62559 -0.13002,0.16587 -0.30665,0.92657 -0.39256,1.69045 -0.20638,1.83555 -0.75697,2.93185 -2.31418,4.60801 -1.08125,1.16385 -1.35401,1.67429 -1.6945,3.1713 -0.50575,2.22361 -0.51943,4.26434 -0.0349,5.20131 0.20399,0.39444 0.56806,2.08518 0.80904,3.75716 0.625,4.33602 0.86111,5.3045 2.15172,8.82513 0.913,2.49052 1.38695,3.39275 2.29325,4.36562 0.62834,0.67448 1.72035,2.05976 2.42671,3.0784 0.90757,1.30882 1.87471,2.27894 3.29708,3.3073 2.8077,2.02991 8.83089,8.13101 10.83995,10.98021 0.9235,1.30968 2.55966,4.13594 3.63588,6.28054 l 1.95675,3.8993 v 2.24472 c 0,1.81915 0.12542,2.52828 0.66146,3.74039 0.47495,1.07395 0.66146,1.96091 0.66146,3.14563 0,1.31324 0.13187,1.84428 0.64619,2.60216 0.58179,0.85732 0.65535,1.27616 0.73835,4.20409 0.0903,3.18537 0.11676,3.30878 1.2937,6.03004 2.35646,5.44833 4.43455,8.23841 9.79988,13.15755 5.98125,5.4838 10.74068,8.63303 17.26475,11.42378 4.04958,1.73225 5.08929,2.3545 7.141,4.27379 2.20903,2.06645 3.48774,3.75515 5.40285,7.1352 2.74071,4.83722 3.059,5.76043 3.23569,9.38573 0.0851,1.74625 0.29604,3.53218 0.46876,3.96875 0.1727,0.43656 0.43257,1.28344 0.57748,1.88193 0.14489,0.59851 0.56092,1.52654 0.92448,2.06226 0.52703,0.77661 0.66104,1.30265 0.66104,2.59461 0,1.31162 0.15129,1.88857 0.79375,3.02694 0.73686,1.30567 0.7943,1.60105 0.80169,4.12245 0.007,2.35781 0.1221,3.05353 0.87389,5.27566 0.66725,1.97228 1.12083,2.83617 1.97646,3.76441 0.61074,0.6626 1.11046,1.46847 1.11046,1.79086 0,0.8581 10.0943,10.95629 11.16645,11.17074 0.43254,0.0865 1.33956,0.64415 2.01557,1.23917 1.59996,1.40835 3.9312,2.69351 6.36632,3.50962 1.64838,0.55242 2.4579,1.06815 5.18253,3.30174 3.61318,2.96198 5.19493,4.67473 8.22246,8.90341 2.30266,3.21625 3.27884,5.27272 3.28832,6.92732 0.003,0.60402 0.30276,1.73511 0.66513,2.51354 0.3624,0.77844 0.66006,1.77848 0.66146,2.22232 0.003,0.44384 0.1138,0.92009 0.24974,1.05833 0.13592,0.13825 0.44109,1.38245 0.67816,2.7649 0.55504,3.23662 3.88646,13.57836 5.17816,16.0745 1.13887,2.2007703 3.19532,5.0586703 4.6161,6.4150803 0.53351,0.50933 1.31501,1.60446 1.73667,2.43364 0.6195,1.21821994 0.98306,1.60464994 1.89426,2.01334994 1.86711,0.83746 8.42741,5.71701006 13.16617,9.79299006 5.26632,4.5297497 7.40913,6.7243397 9.80337,10.0401797 1.33787,1.85285 2.82699,3.78552 3.30922,4.29484 0.48221,0.50933 1.23304,1.60671 1.66852,2.43862 0.4355,0.83193 1.13895,2.02255 1.56326,2.64583 1.14584,1.68325 7.97529,13.85044 8.80417,15.68535 0.39444,0.87312 0.79674,1.95773 0.89403,2.41022 0.0973,0.45249 0.53663,1.16687 0.97631,1.5875 1.24056,1.18676 1.73564,2.16461 2.36347,4.66775 0.46001,1.83417 0.78515,2.54696 1.56856,3.43874 0.54353,0.61873 1.2605,1.65984 1.59324,2.3136 0.75975,1.49272 6.58202,7.46469 9.39233,9.6339 2.5889,1.99829 3.7691,2.76172 5.9711,3.86273 4.5911,2.2955 12.3137,7.36634 17.8249,11.70416 1.8839,1.48281 2.2655,1.90844 2.2655,2.52677 0,0.91988 -0.429,1.37512 -1.3097,1.38997 -0.3711,0.006 -16.322,-3.29775 -35.44649,-7.34219 l -34.77175,-7.35357 -0.947,-1.21851 c -0.65823,-0.84693 -1.67312,-1.62854 -3.32825,-2.5632 -1.96029,-1.10699 -2.99624,-1.96737 -5.86009,-4.86691 -3.44432,-3.48726 -3.50184,-3.56555 -5.79459,-7.88784 -5.88052,-11.08607 -10.32542,-16.41943 -19.15745,-22.98684 -2.19377,-1.63129 -11.826,-6.04422 -26.4124,-12.10067 -7.89366,-3.27752 -16.90712,-7.98554 -23.24452,-12.14136 -5.26257,-3.4509597 -12.0577,-8.3474397 -15.56576,-11.2164797 -6.67919,-5.46248 -15.62984,-14.6550803 -21.6294,-22.2141203 -4.10961,-5.17782 -9.2035,-13.17043 -9.2035,-14.44083 0,-0.75541 -6.49338,-6.67232 -9.65729,-8.79994 -5.19653,-3.49446 -11.94158,-5.59123 -19.79841,-6.15455 -3.72094,-0.26678 -8.19734,-1.26974 -11.23783,-2.51788 -3.48697,-1.43142 -10.89112,-5.14181 -13.86821,-6.94968 -6.15318,-3.73652 -10.28581,-7.08059 -12.97552,-10.49954 -1.03933,-1.32114 -3.42561,-4.24154 -5.30285,-6.48978 -1.87722,-2.24824 -3.5223,-4.37481 -3.6557,-4.7257 -0.13343,-0.35089 -0.758,-1.24986 -1.38798,-1.99771 -0.62997,-0.74784 -2.64628,-3.3366 -4.48069,-5.75278 -3.36711,-4.435 -3.80011,-4.87193 -5.47719,-5.52699 -0.50933,-0.19894 -2.4343,-1.55556 -4.27773,-3.01471 -3.28616,-2.60112 -3.4181,-2.67491 -6.74688,-3.77182 -3.53126,-1.16364 -7.18471,-1.99396 -10.80352,-2.45528 -1.16417,-0.14843 -3.06917,-0.4022 -4.23333,-0.56394 -2.57908,-0.35829 -8.67625,-0.12763 -10.71563,0.4054 -0.80036,0.2092 -3.47927,0.86736 -5.95312,1.46259 -10.53783,2.53553 -15.89189,5.219731 -21.50261,10.78021 -1.78896,1.77295 -2.65142,2.4474 -3.1296,2.4474 -0.46842,0 -0.791,0.24177 -1.11083,0.83259 -0.24789,0.45791 -1.02629,1.71018 -1.72974,2.78278 -1.05971,1.61578 -1.29087,2.1876 -1.34802,3.33459 -0.0525,1.05305 -0.39545,2.0324 -1.43293,4.09157 -1.26741,2.51553 -1.36414,2.84332 -1.36613,4.63021 0,1.05767 -0.1861,3.29227 -0.41097,4.96576 -0.46811,3.48382 -0.53367,10.97055 -0.12394,14.15521 0.14979,1.16416 0.34314,3.18822 0.42969,4.49791 0.0913,1.38102 0.3851,2.99252 0.69953,3.83646 0.29819,0.80037 0.61434,2.36572 0.7026,3.47858 0.10531,1.32789 0.3116,2.19184 0.60024,2.51355 0.63142,0.70376 1.02274,4.58631 1.06272,10.54433 0.0483,7.20005 -0.34727,12.38692 -1.05934,13.89063 -0.38542,0.81385 -0.56568,1.71529 -0.56965,2.84869 -0.005,1.47783 -0.16557,1.97657 -1.47555,4.58861 -0.80836,1.6118203 -2.70873,5.7872603 -4.22307,9.2787303 l -2.75331,6.34817 -2.06623,2.03317 c -2.16996,2.13524 -4.18188,4.9121197 -5.08429,7.0173597 -0.29493,0.68802 -1.29648,2.22686 -2.2257,3.41966 -5.05648,6.49078 -8.2626,13.21408 -9.68507,20.30989 -0.29218,1.45751 -0.65194,2.87549 -0.79942,3.15111 -0.16483,0.30797 -0.26818,3.69969 -0.26818,8.8012 v 8.30014 l 2.36255,4.76991 c 2.57685,5.20261 3.1937,7.07589 3.1937,9.69891 0,1.27916 0.16931,2.08516 0.65887,3.13682 0.56692,1.2178 0.65923,1.79531 0.66146,4.13785 0.003,2.16998 0.10691,2.92701 0.51657,3.73002 0.70781,1.38739 1.07352,7.2586 1.07352,17.23416 0,11.49067 -0.97438,17.99424 -4.06866,27.15694 -1.92984,5.7146 -5.02078,11.7255 -6.92483,13.4666 -0.72544,0.6634 -2.96056,4.1165 -6.50693,10.0527 -0.44132,0.7387 -0.56393,3.1284 -1.41663,27.6151 l -0.9335,26.8065 -0.78036,0.9853 c -0.42919,0.5419 -0.98338,1.1524 -1.23153,1.3567 -0.24818,0.2043 -2.1912,2.9908 -4.31787,6.1922 -3.07512,4.6293 -3.96357,6.1729 -4.33996,7.5407 -0.26033,0.9458 -0.81161,2.8508 -1.2251,4.2333 -0.41347,1.3824 -0.81108,3.1776 -0.88355,3.9893 -0.0732,0.8203 -0.37698,1.878 -0.68377,2.3813 -0.51866,0.8507 -0.55205,1.2854 -0.553,7.1968 0,6.9658 0.43762,12.1541 1.46989,17.3835 0.82913,4.2003 1.08371,8.3335 0.64405,10.4564 -0.18084,0.8731 -0.42135,2.3614 -0.53446,3.3073 -0.22071,1.8455 -0.93477,4.4213 -1.37528,4.9609 -0.14848,0.1819 -0.59801,0.3307 -0.99893,0.3307 -0.40092,0 -0.84786,-0.1488 -0.99317,-0.3307 z"
         id="path1448" />
    </g>
    <g
       style="stroke-width:1;stroke-dasharray:none;stroke:#000000;stroke-miterlimit:4;stroke-opacity:1"
       transform="translate(524.2183,44.535407)"
       id="g1419"
       inkscape:label="The Sun's Face">
      <circle
         style="fill:#fcd116;fill-opacity:1;stroke:#000000;stroke-width:0.623;stroke-dasharray:none;stop-color:#000000"
         id="path1036"
         cx="10.498899"
         cy="-873.3949"
         r="14.688707"
         inkscape:label="The Sun's Face Background"
         transform="matrix(13.346766,0,0,13.366686,-58.826794,11318.458)" />
      <g
         style="stroke:#000000;stroke-width:1;stroke-miterlimit:4;stroke-dasharray:none;stroke-opacity:1"
         id="g1397"
         transform="translate(-514.22172,-45.148199)"
         inkscape:label="The Sun's Face Features">
        <path
           style="fill:#000000;stroke:#000000;stroke-width:1;stroke-miterlimit:4;stroke-dasharray:none;stroke-opacity:1"
           d="m 603.32481,-265.3058 c -1.05563,-1.57036 -1.79014,-3.61455 -2.71679,-7.56092 -0.18201,-0.77515 -0.48189,-1.4673 -0.66636,-1.53807 -0.31983,-0.12275 -16.15337,2.79534 -18.15359,3.34565 -1.1553,0.31787 -3.4091,0.33891 -3.88623,0.0363 -0.27688,-0.17563 -0.28352,-0.46307 -0.0336,-1.45566 0.17129,-0.68024 0.41606,-1.30148 0.54393,-1.38051 0.12785,-0.079 0.15801,-0.77722 0.067,-1.55152 -0.16198,-1.37821 -0.1433,-1.42941 0.88765,-2.43152 0.57923,-0.56301 1.14483,-1.31374 1.25685,-1.6683 0.30221,-0.95631 2.28838,-2.80737 3.57632,-3.33304 0.21828,-0.0891 0.60362,-0.27234 0.8563,-0.40725 0.2527,-0.13488 3.60672,-0.24527 7.45342,-0.24527 h 6.99397 l 1.80702,0.8957 c 0.99386,0.49265 2.43256,1.11165 3.19712,1.37557 l 1.39015,0.47987 0.9911,-0.95522 c 0.54512,-0.52539 1.59883,-1.30964 2.34156,-1.74281 0.74274,-0.43318 1.86193,-1.15811 2.48711,-1.61097 0.62516,-0.45286 1.2736,-0.82339 1.441,-0.82339 0.16741,0 0.96534,-0.58909 1.77316,-1.3091 1.13689,-1.0133 2.59866,-1.82748 6.46896,-3.60307 2.75011,-1.26167 5.02163,-2.31127 5.04783,-2.33246 0.0262,-0.0212 -0.36957,-0.69178 -0.87953,-1.49019 -0.50996,-0.7984 -1.40729,-2.39699 -1.99411,-3.55243 -0.58682,-1.15543 -1.35189,-2.32494 -1.70016,-2.59889 -0.35976,-0.28297 -0.63323,-0.77777 -0.63323,-1.14565 0,-0.35613 -0.56399,-1.74649 -1.25328,-3.08964 -1.1975,-2.33347 -1.26029,-2.56569 -1.41123,-5.22023 -0.0869,-1.52797 -0.37,-4.445 -0.62913,-6.4823 -0.34941,-2.74693 -0.43513,-4.72977 -0.33179,-7.67291 l 0.13933,-3.96875 4.91781,-12.43542 c 2.70479,-6.83948 4.91792,-12.58663 4.91805,-12.77144 1.3e-4,-0.18481 -0.52027,-1.37543 -1.15646,-2.64583 -2.61615,-5.22412 -5.26196,-13.10857 -5.7453,-17.12077 -0.12234,-1.01549 -0.48178,-2.53986 -0.79878,-3.38751 -0.54721,-1.46325 -0.56959,-1.84634 -0.4427,-7.57841 l 0.13364,-6.03723 0.82992,-1.20624 c 0.45646,-0.66344 0.83045,-1.3634 0.83111,-1.55546 0.003,-0.60695 2.90425,-3.63201 4.18944,-4.36676 0.67834,-0.38783 1.78506,-1.10104 2.45941,-1.58494 0.67434,-0.48389 1.36369,-0.87979 1.53188,-0.87979 0.48139,0 2.17554,-0.93107 3.243,-1.78231 1.14104,-0.9099 6.90012,-2.44504 11.72612,-3.12571 1.60073,-0.22577 4.63683,-0.81918 6.74688,-1.31868 6.7016,-1.58642 13.63416,-2.69552 20.50521,-3.28055 3.1125,-0.265 5.26791,-0.77562 6.60564,-1.56493 0.9325,-0.55017 1.24552,-0.56949 9.2289,-0.56949 8.6051,0 10.10137,0.15288 12.15851,1.2423 0.83817,0.44384 0.76023,0.45924 -7.88472,1.55596 -7.60547,0.96486 -9.57389,1.31594 -15.26662,2.72294 -9.26708,2.29047 -10.14751,2.41588 -16.98106,2.4189 -5.65936,0.003 -5.89841,0.0241 -7.25064,0.65357 -0.76907,0.35804 -2.01922,0.7303 -2.77813,0.82727 -3.30597,0.42236 -16.93794,7.99799 -23.41009,13.00957 l -0.59907,0.46387 2.47266,10.38039 c 1.35996,5.70924 2.54135,10.44911 2.62533,10.53309 0.0839,0.084 0.69522,0.0713 1.35834,-0.0281 1.07892,-0.16179 1.29337,-0.31745 2.03944,-1.48011 0.94139,-1.46698 1.93521,-2.34754 2.64959,-2.34754 0.26577,0 1.11292,-0.50752 1.88256,-1.12781 2.92426,-2.35681 8.85037,-4.8722 14.32483,-6.08029 2.37893,-0.52496 3.37855,-0.58928 8.77036,-0.56441 6.79551,0.0314 9.4624,0.36952 13.48341,1.70964 3.88546,1.29495 10.57616,5.09367 14.26839,8.10109 2.02856,1.65232 1.71286,1.47211 5.05654,2.88628 3.31544,1.40222 4.88325,1.64635 10.74711,1.67344 3.66839,0.0169 7.03114,-0.40693 9.7581,-1.22999 2.16217,-0.6526 8.79562,-0.65482 9.98802,-0.003 0.47294,0.25839 0.85989,0.58581 0.85989,0.7276 0,0.14179 0.404,0.25778 0.89773,0.25778 1.1619,0 1.35975,0.52695 0.78478,2.08995 -0.67828,1.84383 -1.22975,2.31256 -3.14653,2.67422 l -1.68489,0.3179 -0.29514,1.49386 c -0.89421,4.52581 -2.35273,8.23812 -4.39166,11.17793 -0.56531,0.81508 -2.11214,2.63414 -3.43739,4.04236 -2.22676,2.36617 -2.63342,2.671 -5.36019,4.01802 -3.18956,1.57564 -7.90261,3.24961 -11.60423,4.12154 -2.92553,0.68911 -12.59481,0.99322 -16.02211,0.50393 -3.44512,-0.49183 -7.4494,-1.54234 -11.17788,-2.9324 -3.65842,-1.36396 -5.6188,-1.70559 -15.83576,-2.75953 -5.7884,-0.59711 -5.9743,-0.58311 -7.05454,0.53142 -1.52603,1.57448 -2.93113,0.82891 -3.28065,-1.74072 l -0.16322,-1.2001 1.66137,-1.19454 c 2.38671,-1.71612 2.76908,-1.82925 6.18226,-1.82925 2.57328,0 3.21207,-0.0864 4.15473,-0.56169 0.61266,-0.30892 1.15202,-0.59504 1.19856,-0.63582 0.0465,-0.0408 -0.15193,-0.53773 -0.44098,-1.10434 -0.4649,-0.91128 -0.53576,-1.67219 -0.61378,-6.59074 l -0.0882,-5.56054 0.72041,-0.94843 c 1.398,-1.84052 2.29992,-2.06094 8.43238,-2.06094 4.64452,0 5.50679,0.0634 6.06803,0.44643 1.24354,0.84862 5.62737,4.98163 6.51264,6.14005 l 0.88842,1.16253 -0.006,3.07081 c -0.008,4.38869 -0.26493,4.86772 -3.33529,6.22577 -1.29109,0.57108 -2.59128,1.25384 -2.88933,1.51728 -0.29802,0.26345 -0.9326,0.55714 -1.41012,0.65263 l -0.86826,0.17367 2.07161,1.20369 c 3.29584,1.91503 5.93122,2.47156 12.39033,2.61647 4.6786,0.10496 5.61353,0.0527 8.06971,-0.45127 5.13297,-1.05318 10.57164,-3.5006 15.58396,-7.01281 1.65772,-1.16163 2.41898,-1.9389 3.76423,-3.84347 1.866,-2.64189 3.54407,-5.57218 3.80751,-6.64888 l 0.17135,-0.70024 -7.49631,-0.12364 c -8.21288,-0.13547 -11.0698,-0.48136 -17.28586,-2.09288 -3.02226,-0.78354 -3.2243,-0.87929 -4.19955,-1.99028 -1.04156,-1.18655 -4.02191,-3.31171 -5.74643,-4.09755 -0.52258,-0.23815 -1.95133,-0.6999 -3.175,-1.02613 -1.73104,-0.46149 -2.46555,-0.81227 -3.30931,-1.58038 -0.90159,-0.82077 -1.49539,-1.08374 -3.52134,-1.55935 -3.86596,-0.90763 -6.6748,-1.15316 -11.4015,-0.99664 -4.62023,0.15301 -6.75307,0.53933 -10.58333,1.91696 -4.68339,1.68445 -8.89413,4.39696 -12.93919,8.33528 l -2.75272,2.6801 0.0487,5.06851 c 0.0446,4.64082 -0.0177,5.41462 -0.73726,9.16959 -1.23076,6.42207 -2.09548,9.35321 -2.96611,10.05417 -0.29957,0.24119 -1.82007,3.41767 -1.82007,3.80232 0,0.20781 -0.42889,1.01487 -0.95308,1.79348 -0.5242,0.77862 -1.12626,1.75019 -1.3379,2.15905 -0.21164,0.40889 -0.78129,1.1828 -1.2659,1.7198 l -0.88108,0.97639 -0.19548,7.19611 -0.1955,7.19614 0.73049,1.27053 c 0.40174,0.69881 0.93996,1.50868 1.19599,1.79972 0.25604,0.29104 0.84403,1.44624 1.3066,2.56712 0.46257,1.12088 1.25534,2.58056 1.7617,3.24374 1.0986,1.4388 1.93421,3.19826 1.95239,4.11101 0.007,0.36381 0.36703,1.12917 0.79954,1.70077 0.56277,0.7438 0.79031,1.34567 0.80015,2.11667 l 0.0138,1.07736 2.26793,1.05833 c 2.80313,1.30807 2.99625,1.6578 2.99625,5.426 0,2.87369 -0.37111,4.05614 -1.6279,5.18699 -0.34158,0.30734 -4.60148,2.72595 -9.46645,5.37467 -4.86495,2.64872 -9.17012,5.07614 -9.56705,5.3943 -0.39692,0.31816 -1.41713,1.01454 -2.26713,1.54755 -0.84997,0.53303 -2.30973,1.66259 -3.24387,2.51015 -1.92432,1.74596 -2.96326,2.19962 -5.05053,2.2053 l -1.45732,0.004 -1.11162,-1.65364 z"
           id="path1383"
           inkscape:connector-curvature="0"
           inkscape:label="The Sun's Face Right Eye, Eyebrow and Nose" />
        <path
           style="fill:#000000;stroke:#000000;stroke-width:1;stroke-miterlimit:4;stroke-dasharray:none;stroke-opacity:1"
           d="m 641.14602,-155.35007 c -0.58949,-0.23717 -1.11892,-1.60835 -1.11892,-2.89785 0,-1.13117 0.11012,-1.35461 1.16639,-2.36672 1.66208,-1.59255 2.12169,-3.57812 1.95641,-8.45193 -0.0757,-2.23094 -0.23858,-3.70094 -0.43157,-3.89393 -0.17049,-0.17049 -0.30998,-0.70969 -0.30998,-1.19824 0,-1.82904 -0.56475,-3.21215 -1.95027,-4.77621 -0.74637,-0.84254 -2.19046,-2.52042 -3.20911,-3.72864 l -1.85208,-2.19678 -3.15039,0.15933 c -1.73273,0.0876 -3.59445,0.15931 -4.13716,0.15931 -0.96205,0 -0.99108,0.0289 -1.15986,1.15448 -0.10511,0.70093 -0.0497,1.42547 0.14113,1.84425 0.24665,0.54131 0.24199,0.77687 -0.0217,1.09448 -0.4232,0.50993 -2.32754,0.53633 -2.89611,0.0402 -0.22973,-0.2005 -1.60832,-0.78182 -3.06353,-1.2918 -1.45521,-0.51002 -4.07458,-1.43082 -5.82083,-2.04624 -3.77203,-1.32935 -7.85445,-3.21321 -10.81609,-4.99113 -1.18168,-0.70934 -3.52438,-1.94984 -5.20605,-2.75661 -2.41024,-1.15634 -3.25805,-1.71156 -4.0047,-2.62276 -1.29604,-1.5816 -2.85316,-4.61299 -2.53371,-4.93244 0.15889,-0.15889 -0.24431,-0.52991 -1.09529,-1.00788 l -1.34676,-0.75642 0.008,-2.11667 c 0.007,-1.9177 0.067,-2.15953 0.63537,-2.57254 0.91583,-0.66559 2.54019,-0.9825 5.97064,-1.16496 4.07006,-0.21648 5.40478,0.0791 9.59228,2.12437 3.4239,1.67227 3.51679,1.70053 4.03376,1.22711 0.29104,-0.26652 1.57097,-0.93372 2.84427,-1.48267 1.27331,-0.54896 2.31511,-1.08908 2.31511,-1.20031 0,-0.11121 0.92273,-0.40442 2.05052,-0.65157 1.12779,-0.24714 2.28865,-0.57973 2.57969,-0.73906 0.34319,-0.18788 2.11,-0.25998 5.02708,-0.20518 l 4.49792,0.0845 2.05324,1.06426 c 1.52945,0.7928 2.51741,1.56131 3.87284,3.01271 1.58218,1.69418 2.3807,2.98611 6.11982,9.90153 2.36511,4.37419 4.51649,8.06886 4.78086,8.21034 0.26699,0.1429 0.55763,0.69691 0.65381,1.24624 0.16407,0.93712 2.79416,6.01271 3.88885,7.50469 0.45291,0.6173 0.5144,1.20835 0.55043,5.29167 0.0563,6.38315 -0.0836,6.887 -2.99794,10.79444 -2.14704,2.87867 -2.49282,3.21723 -4.31067,4.22072 -1.87899,1.03722 -2.54307,1.22081 -3.30586,0.91389 z"
           id="path1379"
           inkscape:connector-curvature="0"
           inkscape:label="The Sun's Face Chin" />
        <path
           style="fill:#000000;stroke:#000000;stroke-width:1;stroke-miterlimit:4;stroke-dasharray:none;stroke-opacity:1"
           d="m 560.25522,-229.43322 c -3.46102,-0.7556 -10.85961,-3.45305 -11.29546,-4.11827 -0.3809,-0.58131 0.0867,-2.41435 0.86865,-3.40502 l 0.75242,-0.95332 3.2497,-0.16116 c 4.92974,-0.24442 9.8475,-1.50519 14.62677,-3.74984 5.53538,-2.59977 9.77969,-3.56248 16.58909,-3.76282 7.20264,-0.21193 11.74192,0.45344 17.76259,2.60366 2.55437,0.91228 3.13655,1.02367 5.35027,1.02367 2.04991,0 2.73608,-0.11147 3.92639,-0.63788 1.71175,-0.75703 4.29469,-1.31779 8.09771,-1.75803 3.95282,-0.45759 14.03776,-0.17171 17.79198,0.50435 l 2.84306,0.51197 1.81803,1.61179 c 2.07896,1.84314 4.13975,2.94952 6.93864,3.72512 2.11392,0.58581 5.78991,0.73171 6.98516,0.27728 1.36581,-0.51927 5.11877,-0.79594 6.15479,-0.4537 0.86077,0.28434 1.02656,0.49159 1.48215,1.85311 0.71699,2.14268 0.35113,3.39101 -1.22809,4.19018 -0.61262,0.31001 -1.4115,0.76462 -1.7753,1.01026 -4.40439,2.97378 -15.03001,-0.3829 -21.82813,-6.8956 -0.7276,-0.69704 -2.02266,-1.58644 -2.87787,-1.97643 -1.40962,-0.64278 -1.76933,-0.69684 -3.84821,-0.5783 -2.45427,0.13993 -2.77302,0.25929 -7.14428,2.67559 -1.22579,0.67758 -2.37159,1.23196 -2.54627,1.23196 -0.39394,0 -5.14929,2.08203 -5.63073,2.46528 -0.20267,0.16137 -2.21917,0.32261 -4.7625,0.38084 l -4.41098,0.10099 -4.23333,-2.29806 c -2.32833,-1.26392 -4.53099,-2.41345 -4.89479,-2.5545 -0.82391,-0.31949 -6.21808,-1.26543 -7.2294,-1.26781 -2.14124,-0.005 -8.35218,2.76598 -12.72146,5.67569 -3.42405,2.2802 -6.07409,3.57896 -8.90121,4.36242 -1.58473,0.43913 -2.67343,0.53758 -5.67074,0.51279 -2.04023,-0.0169 -3.94761,-0.0827 -4.23865,-0.14621 z"
           id="path1381"
           inkscape:connector-curvature="0"
           inkscape:label="The Sun's Face Mouth" />
        <path
           style="fill:#000000;stroke:#000000;stroke-width:1;stroke-miterlimit:4;stroke-dasharray:none;stroke-opacity:1"
           d="m 578.77605,-360.79628 c -0.29104,-0.15981 -1.00541,-0.7397 -1.5875,-1.28866 -0.86053,-0.81155 -2.56659,-1.61618 -9.12812,-4.30511 -4.43839,-1.81888 -8.45675,-3.38794 -8.92969,-3.48684 -0.47294,-0.0989 -0.8599,-0.2671 -0.8599,-0.37378 0,-0.24413 4.18852,-1.27743 5.95313,-1.46862 0.7276,-0.0788 2.6326,-0.1533 4.23333,-0.16544 2.43033,-0.0185 3.25956,0.0892 5.02709,0.65262 3.11097,0.99171 5.21128,2.34304 7.27829,4.68286 2.34831,2.65827 2.59495,3.89805 1.11336,5.59657 -0.46238,0.53009 -2.25464,0.62053 -3.09999,0.1564 z"
           id="path1387"
           inkscape:connector-curvature="0"
           inkscape:label="The Sun's Face Left Eyebrow End" />
        <path
           style="fill:#000000;stroke:#000000;stroke-width:1;stroke-miterlimit:4;stroke-dasharray:none;stroke-opacity:1"
           d="m 562.63647,-387.39003 c -0.29104,-0.0744 -2.90949,-0.91657 -5.81877,-1.87156 -5.2333,-1.71786 -5.30852,-1.75326 -7.06647,-3.32719 -1.69603,-1.51852 -2.59289,-2.94262 -2.59289,-4.11723 0,-0.26781 -1.02711,-1.53035 -2.28248,-2.80567 -2.75143,-2.79511 -5.05997,-4.01103 -9.22689,-4.85976 -5.33252,-1.08617 -7.17249,-1.23045 -15.34584,-1.20346 -10.92652,0.0361 -16.71735,0.61748 -18.12396,1.81972 -0.21828,0.18656 -0.80385,0.54558 -1.30127,0.7978 -0.49744,0.25223 -1.66809,1.22227 -2.60149,2.15567 -1.76956,1.76956 -4.04368,3.26364 -4.97401,3.26789 -0.29832,0.003 -0.67424,0.13433 -0.83539,0.29549 -0.70573,0.70572 -1.53197,-3.06866 -0.8513,-3.88882 0.46876,-0.56483 5.00216,-3.92417 5.97154,-4.42502 0.4155,-0.21471 1.29125,-0.53446 1.94609,-0.71059 0.65484,-0.17614 2.02406,-0.71261 3.04271,-1.19214 6.24126,-2.93817 12.69881,-3.82291 27.96101,-3.83093 l 7.32353,-0.004 2.46605,1.15512 c 1.36044,0.63725 2.82194,1.53797 3.25983,2.00906 0.43656,0.46966 1.32953,1.14289 1.98437,1.49611 2.10781,1.13689 5.35686,3.87072 5.93876,4.997 0.71316,1.38041 2.41102,2.52143 7.68729,5.16615 5.55998,2.78694 8.26111,3.50242 12.3123,3.26141 2.69269,-0.1602 2.81287,-0.1438 3.54121,0.48268 0.88958,0.76518 0.96735,1.64304 0.30046,3.39204 -0.2495,0.65437 -0.50509,1.24119 -0.56793,1.30405 -0.38359,0.38357 -10.966,0.93771 -12.14646,0.63601 z"
           id="path1389"
           inkscape:connector-curvature="0"
           inkscape:label="The Sun's Face Left Eyebrow" />
        <path
           style="fill:#000000;stroke:#000000;stroke-width:1;stroke-miterlimit:4;stroke-dasharray:none;stroke-opacity:1"
           d="m 525.18157,-332.97114 c -8.91021,-0.68924 -18.45947,-5.01462 -27.02689,-12.24193 -0.91522,-0.77205 -2.5046,-2.07946 -3.53198,-2.90536 -1.35316,-1.08781 -2.03835,-1.8655 -2.48634,-2.82199 -0.5769,-1.23172 -0.94404,-1.53681 -5.46762,-4.54364 -4.72935,-3.14357 -4.86905,-3.21501 -5.65367,-2.88999 -1.7531,0.72615 -7.84757,-0.16124 -11.65267,-1.69669 -1.75871,-0.70967 -6.07698,-3.48872 -6.07698,-3.91086 0,-0.27665 5.03992,-0.0122 6.21771,0.32615 0.43656,0.12544 2.40109,0.30551 4.36563,0.40015 3.29776,0.15886 3.67336,0.12798 4.8945,-0.40206 0.72744,-0.31578 1.67994,-0.84561 2.11666,-1.17739 0.43672,-0.33182 1.27029,-0.7516 1.85238,-0.9329 1.65475,-0.51538 3.85932,-1.68656 4.13443,-2.19649 0.1374,-0.25466 0.5144,-0.46302 0.8378,-0.46302 0.32338,0 1.89677,-0.77573 3.49642,-1.72384 6.57037,-3.89427 13.20059,-6.61509 18.38656,-7.5452 0.94588,-0.16965 2.07698,-0.46596 2.51354,-0.6585 2.05735,-0.90731 11.84278,-1.22893 16.14747,-0.53075 3.57211,0.57938 6.79606,1.59112 10.07335,3.16127 2.8553,1.36795 6.14338,3.41159 7.5389,4.68564 0.37775,0.34485 1.73718,1.51997 3.02094,2.61138 2.36243,2.00843 5.98977,5.88658 7.35787,7.86665 0.71247,1.03113 0.72816,1.11715 0.34052,1.86676 -0.4699,0.90869 -0.88487,1.11451 -2.24697,1.11451 -0.81473,0 -1.30035,-0.26691 -2.82263,-1.55147 -1.68444,-1.42136 -8.4569,-5.24414 -14.50345,-8.1866 -2.43348,-1.1842 -7.34145,-2.7971 -10.75079,-3.53301 -2.42234,-0.52287 -3.55743,-0.60092 -8.86354,-0.6096 -4.87802,-0.008 -6.53164,0.0845 -8.33438,0.46609 -3.19209,0.67569 -6.38196,1.67211 -8.56829,2.6765 -1.0355,0.47572 -2.57191,1.13755 -3.41424,1.47074 -0.84233,0.33319 -2.1168,1.13202 -2.83213,1.77517 -0.71535,0.64315 -2.03972,1.4697 -2.94301,1.83673 -0.90331,0.36706 -2.03996,0.93753 -2.5259,1.26773 l -0.88352,0.60037 1.25698,1.04748 c 0.69133,0.57613 1.69828,1.31572 2.23766,1.64357 0.53936,0.32782 1.53361,1.21462 2.20941,1.97067 0.6758,0.75602 2.73481,2.71139 4.57557,4.34525 l 3.34685,2.97069 0.13229,-3.10298 c 0.1239,-2.90613 0.46183,-4.29358 1.04571,-4.29358 0.12835,0 0.3647,-0.61241 0.52522,-1.36091 0.33568,-1.56528 1.65979,-3.5124 3.28163,-4.82574 1.95667,-1.58446 2.46333,-1.73754 5.22655,-1.57932 2.9182,0.16711 4.56182,0.69061 5.26386,1.67653 0.27803,0.39044 1.211,1.08593 2.07331,1.54554 1.1159,0.59478 1.66708,1.07529 1.91219,1.66703 0.23688,0.57187 0.69639,0.98711 1.47199,1.33019 0.62018,0.27435 1.20358,0.73814 1.29643,1.03069 0.0928,0.29255 0.1688,1.8878 0.1688,3.54502 0,2.52431 -0.0875,3.17759 -0.5394,4.02693 -0.29668,0.55761 -0.6027,1.32903 -0.68004,1.71429 -0.0773,0.38523 -0.52837,1.18255 -1.00229,1.77181 -0.47392,0.58925 -1.08448,1.38715 -1.35678,1.77313 -0.27234,0.38597 -1.03979,1.04717 -1.70546,1.46934 -1.1404,0.72321 -1.37927,0.76872 -4.13509,0.78787 l -2.92476,0.0204 3.83646,1.33652 c 3.71851,1.29545 3.94669,1.34043 7.42151,1.46346 4.04945,0.14336 7.94361,-0.31387 11.97282,-1.40581 5.06058,-1.37141 10.18172,-1.77734 13.28171,-1.05275 0.87313,0.20408 2.18282,0.5125 2.91042,0.68538 1.54033,0.366 2.24896,0.90188 2.24896,1.70071 0,0.70115 -2.61953,2.14583 -7.14375,3.93984 -5.6759,2.25065 -7.38166,2.60117 -13.09688,2.69121 -2.76489,0.0436 -6.28459,-0.018 -7.82156,-0.13695 z"
           id="path1385"
           inkscape:connector-curvature="0"
           inkscape:label="The Sun's Face Left Eye" />
      </g>
    </g>
  </g>
</svg>
