<?xml version="1.0" encoding="UTF-8" standalone="no"?>
<svg
   height="32"
   width="32"
   version="1.1"
   viewBox="0 0 24 24"
   id="svg160"
   sodipodi:docname="Transylvanian Castle (symbolic).svg"
   inkscape:version="1.2.2 (b0a8486541, 2022-12-01)"
   xmlns:inkscape="http://www.inkscape.org/namespaces/inkscape"
   xmlns:sodipodi="http://sodipodi.sourceforge.net/DTD/sodipodi-0.dtd"
   xmlns="http://www.w3.org/2000/svg"
   xmlns:svg="http://www.w3.org/2000/svg"
   xmlns:rdf="http://www.w3.org/1999/02/22-rdf-syntax-ns#"
   xmlns:cc="http://creativecommons.org/ns#"
   xmlns:dc="http://purl.org/dc/elements/1.1/">
  <metadata
     id="metadata166">
    <rdf:RDF>
      <cc:Work
         rdf:about="">
        <dc:format>image/svg+xml</dc:format>
        <dc:type
           rdf:resource="http://purl.org/dc/dcmitype/StillImage" />
        <dc:title />
      </cc:Work>
    </rdf:RDF>
  </metadata>
  <defs
     id="defs164" />
  <sodipodi:namedview
     pagecolor="#ffffff"
     bordercolor="#666666"
     borderopacity="1"
     objecttolerance="10"
     gridtolerance="10"
     guidetolerance="10"
     inkscape:pageopacity="0"
     inkscape:pageshadow="2"
     inkscape:window-width="1920"
     inkscape:window-height="1011"
     id="namedview162"
     showgrid="false"
     inkscape:zoom="12.586666"
     inkscape:cx="1.7081568"
     inkscape:cy="17.439089"
     inkscape:window-x="0"
     inkscape:window-y="32"
     inkscape:window-maximized="1"
     inkscape:current-layer="svg160"
     inkscape:showpageshadow="2"
     inkscape:pagecheckerboard="0"
     inkscape:deskcolor="#d1d1d1" />
  <path
     id="path92-6"
     style="fill:#000000;fill-opacity:1;stroke:none;stroke-width:0.518973;stroke-opacity:1"
     inkscape:label="Tower"
     d="M 4.1279297 0.71191406 L 4.1279297 6.590332 L 7.2832031 6.590332 L 6.2080078 16.488281 L 3.1845703 16.488281 L 3.1845703 23.288086 L 8.7304688 23.288086 L 8.7304688 21.358887 C 8.7304688 19.290231 10.199875 17.607422 12 17.607422 C 13.809855 17.607422 15.269531 19.290231 15.269531 21.358887 L 15.269531 23.288086 L 20.81543 23.288086 L 20.81543 16.488281 L 17.802246 16.488281 L 16.716797 6.590332 L 19.861816 6.590332 L 19.861816 0.71191406 L 16.864746 0.71191406 L 16.864746 3.0380859 L 14.471191 3.0380859 L 14.471191 0.71191406 L 9.5288086 0.71191406 L 9.5288086 3.0380859 L 7.1352539 3.0380859 L 7.1352539 0.71191406 L 4.1279297 0.71191406 z M 9.0717773 8.5151367 L 10.482422 8.5151367 L 10.482422 12.555176 L 9.0717773 12.555176 L 9.0717773 8.5151367 z M 13.517578 8.5151367 L 14.928223 8.5151367 L 14.928223 12.555176 L 13.517578 12.555176 L 13.517578 8.5151367 z " />
</svg>
